<?xml version="1.0" encoding="UTF-8"?>
<svg viewBox="0 0 500 240" xmlns="http://www.w3.org/2000/svg">
 <switch>
  <g>
   <g fill="#666" fill-rule="evenodd" stroke="#000" stroke-linejoin="bevel" stroke-miterlimit="2.414" stroke-width="0">
    <path d="m407 117.73l-3.978 3.783-3.588 2.717-3.3 2.425-4.169 2.427-2.426 0.96799-3.008 0.96899-3.395 0.58301-3.592 0.291-6.403 0.39-6.304 0.38699-6.694 0.19202 4.852 21.15 0.582 2.229-0.582 2.815-1.068 2.135-2.134 2.909-2.134 1.458-14.164 8.147-1.94 0.29001-2.134 0.776-2.619 0.29199h-2.813l2.618 2.135 3.201 2.134 5.529 2.718 8.343 4.654 1.552 0.968 9.313 8.537 1.457 1.848 4.365 7.178 1.939 6.596 0.875 1.938v3.493l-0.875 2.232-1.65 1.359-1.843 0.48299-3.298-0.58198-10.476-3.395-6.21-2.328-1.648-1.457-1.845-2.717-2.911-7.47-1.843-0.96901-3.686-3.686-32.887-13.196-1.355-1.066-0.68298-1.646-1.26-4.56-5.143-21.15 26.194 2.718h6.305l5.919-1.067 6.014-2.327 1.068-0.87399 0.77499-1.844-0.48599-1.842-1.161-2.427-2.329-3.686-3.689-4.852-2.52 2.524 6.013 6.013 0.48502 1.359-0.289 1.842-0.86902 1.361-2.426 1.552-4.658 1.744-8.147 2.524-26.388-2.812-23.185-0.19299 5.819 3.296 5.822 1.941 4.365-0.192 3.395-2.04 3.977-2.619 5.143 21.052-7.372 2.717-5.725 0.776-3.878-0.19701-4.464-0.96899-3.978-1.453-5.531-3.592-5.527-3.783-17.754-7.273-1.262-1.067-0.38699-1.358 0.582-2.327 1.164-1.941 2.716-1.941 3.685-0.875-1.647-2.618v-2.035l0.77502-1.941 6.5-13.873 0.48297-2.619-0.28998-3.008-0.97-2.422-1.551-2.426-2.426-1.941-3.59-1.553-34.438-9.313-3.977-1.747-4.851-2.813-3.3-2.814-4.558-5.528-5.432-1.554-5.045-0.581-6.402 0.097-6.306 0.874-25.417 6.692-28.813 5.627-13.582 1.651-11.834 1.163-9.896 0.583-7.858-0.583-6.306-0.77499-4.171-0.486-4.462-1.067-3.493-1.26-3.687-1.554-16.297-8.633-3.008-1.067-3.492-0.388-3.589 0.875-8.052 4.948-5.142 2.036-3.007 0.388-2.523-0.388-1.842-1.067-2.325-2.819-0.969-2.715-0.196-3.298 0.971-3.493 1.552-2.426 2.231-2.618 3.687-2.621 8.052-3.686 4.851-1.651 3.298-0.67701 3.589-0.291 4.56 1.163 6.5 3.202 7.47 3.299 3.298 1.453 5.044 1.554 5.142 1.455 6.985 1.067 6.597 0.77599 9.798-0.77599 14.357-1.844 28.909-5.433 44.722-11.252 5.82-1.066 4.269-0.581 4.85-0.195 8.925-9.313 6.694-6.791 6.79-6.985 7.568-6.692 2.328-1.747 1.068-0.875 1.357-0.581 1.649-0.583 19.5-5.627 8.44-1.843 5.333-1.358 7.082-1.164 6.79-0.971 7.471-0.679 9.217-0.484h9.604l8.05 0.971 6.209 0.97 6.694 1.745 7.372 2.524 17.464 7.759 9.214 2.814 16.59 0.875 2.618 0.289 2.619 0.583 8.054 1.939 2.425 0.583 2.715 0.195 2.231-0.195 1.843-0.583 8.344-3.202 8.345-3.977 6.596-3.201 6.403-2.424 7.274-2.134-2.426 4.269-1.746 3.878-11.543 9.797-3.59 5.531-2.717 7.277-1.745 8.147-0.39002 12.223 0.68201 11.254v6.984l-1.358 9.12-1.068 4.173-2.525 4.85z"/>
    <path d="m452.6 19.165l0.67999 1.164 0.48401 1.358 2.329-0.679 1.65-0.486 1.744 0.486 1.066 0.581 0.97101 1.262 0.48498 1.843 1.162 1.551 3.689 1.554 2.715 2.134 6.693 5.238 2.327 2.134 1.457 1.939 0.87302 1.65 0.77698 1.844 0.19299 2.814 0.48401 2.327 6.014 5.627 1.747 2.135 1.26 1.939 0.87402 1.359 0.48398 1.356 0.29202 1.165-0.776 0.969-5.819 7.374-0.97302 0.583-1.162 0.195-4.171-0.583-0.776 0.87199-0.29202 1.358 1.456 1.359 0.48297 1.164v1.456l-0.48297 1.553-0.97 1.162-1.263 0.778-1.553 0.38801-1.358-0.193-1.938-0.58301-6.209-2.33-4.172-0.87199-3.007-0.388-5.142-0.098999-2.231 0.098999-2.231 0.583-2.813 0.968-2.813 1.067-2.911 1.554-4.56 3.201-4.946 4.17-6.597 7.082-6.792 7.665-12.125 15.81 2.329-8.438 1.358-13.001-1.358-12.61-0.681-11.931 2.039-9.412 3.103-10.476 4.172-5.529 7.374-5.336 3.588-5.239 4.171-4.17 3.105-1.843 1.066-2.038 1.164-1.554 2.718-2.619 2.813-2.814 2.328-1.842 2.427-0.97 2.23 0.195 1.748 0.97z"/>
    <path d="m350.54 43.515l-2.715-1.843-7.665-5.239-4.946-2.91-3.978-1.942-4.947-1.744-5.433-1.457-7.857-1.164-7.762-0.872-8.44-0.487-14.359 0.972-16.879 3.201-0.87201 2.426-1.552 2.327-1.649 1.26-2.426 0.585-1.843-0.195-1.165-0.971-0.29001-1.843 0.19501-1.455-14.554 3.686-0.582 2.327-1.163 1.458-1.94 1.066h-1.941l-0.87201-1.066-0.19499-1.263-7.567 3.105 2.135 0.875 1.456 1.067 0.582 1.648v1.941l-0.87299 1.26-1.94 0.874-2.135-0.195-2.522-1.358-1.066-0.68-1.94 3.201-1.357 0.388-1.457-0.388-3.201 2.135-1.261 2.038-7.662 10.768-1.941 4.753v4.172l0.97101 3.491 2.037 4.948 3.104 3.201 3.202 1.554 4.752 0.969h1.65l3.104-0.969 4.365 2.424 2.912 3.201 4.462 1.262 5.432-0.291-2.522 2.91-1.261 2.134 0.388 2.134 1.165 0.776h1.357l2.135-0.292 12.707-5.916-0.58102 4.268-0.97098 1.94-1.066 1.262 1.066 1.551h2.717l2.91 0.97 1.843 2.231 0.48401 3.784 3.687 1.551 2.911 1.164 5.24 5.044 1.358 2.622 0.48401 1.646-1.649 1.847-3.591 0.678h-3.688l0.974 2.232 4.362 2.52 0.582 1.65-0.96799 1.552-1.263 0.96901-3.201 1.748-5.819 7.372-3.589 4.461-0.29199 1.65 0.67999 1.358 0.97101 1.066 1.938 0.584 2.913-0.098999 17.36-2.229 18.726-0.58301-6.211 1.843 0.39002 0.96899 2.036 0.582 12.223-2.134 3.397-0.19299 3.396 0.67799 7.954 3.201 2.619 0.96899 0.87399-0.96899 0.48401-1.066-1.649-3.005-0.97-1.166-1.358-1.165h2.135l4.852 5.435 2.327 0.873 2.327 0.095001 2.233-1.066 0.19199-1.553-0.19199-1.066-3.785-4.753 3.009 1.941 1.356 1.067 0.77802 0.96901 0.289 1.358 1.163-1.358 0.29199-0.875-0.48401-1.358-1.26-1.354-3.592-3.592-10.572-5.335-2.331-0.77499-2.037-0.875h-2.812l-2.135 0.48399-16.589 3.784-2.715 0.38998-3.007-0.19199-2.717-0.681-2.91-3.395-1.359-1.552-2.618-1.067-2.621-0.291-2.715-1.067v-1.551l3.299-0.875h2.423l1.942 0.386 2.425 0.97301-1.165-2.717-1.26-1.843-1.747-1.843-2.33-1.166-2.52-0.874 2.231-1.162 1.646-0.098999 1.358 0.292 0.97198 0.77599 2.038-13.873 0.29199-2.91-0.19601-3.008-0.87198-1.648-1.066-2.135-1.941-0.583-1.942 0.098999-1.938 0.484 1.066-3.104 1.456-1.94 2.717-1.066 2.521-0.679 2.231 0.484 3.3-5.627 2.036-4.074 1.551-4.074 0.29199-2.038 0.194-2.619-0.582-3.201-0.582-1.747-3.008-11.351-3.201-9.701-1.65-1.551-1.453-1.262-3.784-1.648-3.686-1.164-7.955-1.262 3.007-0.971 4.559-0.875h4.268l7.085 0.39 13.095 1.843 13.97 2.717 4.073 0.773 3.881 0.778 4.464 1.263 6.401 3.006 4.658 2.522 1.744 0.29 2.524-0.873 5.528-2.329 1.456-1.455 2.425-1.939 3.105-1.94-1.458-0.291-3.493-1.549z"/>
    <path d="m466.47 29.059l10.864 7.569 1.455 1.648 0.67902 1.067 0.681 1.067 0.57898 1.067 0.19601 1.262 0.97098 5.529 5.044 4.752 3.006 3.397 1.941 2.811 0.58099 0.778-0.097015 0.872h-1.262l-2.52-0.289-4.076-1.166 1.551 1.455 0.875 1.456v1.746l0.388 0.97099 0.97101 1.65-1.554 2.036-1.064 1.067-1.941 0.195-1.747-0.39-1.647-0.968-0.97098-1.456-0.58301-2.326-0.388-1.747 0.19199-1.456 0.19501-1.36 1.649-3.006 3.881 1.65-3.685-2.814-1.263-1.165-0.97101-1.648-1.26-3.104-0.68201-1.747 0.97299 0.485h1.161l-0.96802-0.778-0.875-0.872-0.96799-0.969-0.681-1.455-0.29001-1.554-0.87201-0.193-0.97198-1.65-0.67899-1.166 0.67899-2.423-0.67899-0.388-1.358 0.872-0.48401 1.455 0.19199 1.166 1.262 1.26-0.388 0.486-0.483 0.68-4.852 1.745-2.327 2.134-1.942 1.65-2.521 1.455-2.038 0.583-3.784 0.679 3.008-0.099003h1.942l1.261-0.581 1.745-0.487 3.006-2.329 1.167-0.581 1.744 0.291 1.65 0.971 2.813 0.581h2.231l2.232 3.589 1.162 2.912-0.095001 2.135-0.68198 1.744-0.58002 0.873-0.19598 1.65 0.39099 1.649 0.582 1.843 0.57999 1.455-7.08-2.23-1.65-0.192-1.843 0.192-14.746 6.692-5.335-3.878-1.358-8.925 3.104-5.627-4.947-3.104 2.813 0.388 0.58301-1.941-0.97299-2.91-0.48401-0.971 0.48401-3.298 0.77698-2.134 1.844-2.813h-1.648l3.587-2.91-1.647-0.872 3.686-0.875 5.433-3.589 1.358-0.484 2.037-0.195 2.91 0.388 2.04 1.067z"/>
    <path d="m448.62 53.021l0.48401 1.747-0.96802 2.134-1.067 3.201-0.48599 2.231 0.57999 2.134 1.555 2.813 1.745 2.233 0.776-1.65 1.455-1.164-0.77499 2.52 1.454-1.356 1.747-0.778 2.037-0.386h2.231l2.037 0.386 2.135-0.873 3.201-1.164 1.068-0.098999-2.911 1.456-1.066 0.777-0.58402 0.873-0.19397 0.679v0.87199l1.164 0.58301 0.87402 0.195 2.813 1.163 2.715 1.843 2.91 0.971 2.037 0.968 2.232 0.195 1.261-0.289 0.67999-0.682-0.19299-0.968 0.97 0.776v0.875l-0.19299 1.648-0.97101 1.26-1.263 0.775-2.036 0.19501-2.231-0.19501-2.62-0.96899-3.783-1.842-3.587-0.778-3.301-0.581-8.053-2.036-1.744-0.874-1.552-1.166-3.492-3.395-0.48602-1.067-0.97098-1.843-0.58099-2.038-0.289-2.812 0.289-2.329 0.97098-2.038 0.58099-0.581 0.096008-0.776-0.38498-0.973h-1.844l-2.134 0.778-1.555 0.872-1.261 1.457-1.552 2.522-0.776 1.841v2.038l0.388 1.746 0.97101 3.785 0.58298 1.842 0.289 2.231 0.19601 2.134-0.776 3.493-0.87399 2.134-0.87201 2.135-1.554 2.036-2.618 2.621-5.92 5.432 0.39099-2.619-1.941-2.813-2.618-1.843-1.65-1.942-0.96799-2.134-0.29202-2.327 0.87201-4.755 2.911-6.5 4.171-6.208 3.687-3.978 3.3-2.717 2.618-1.842 2.522-1.26 2.134-0.487 2.91-0.29 2.813 0.388 1.358 1.356 0.77499 1.073z"/>
    <path d="m303.69 95.512v-2.038h-1.064l-0.487-1.551 0.39099-1.551 0.57999-1.067-0.97098-1.554h-1.647l0.483-2.52 0.097992-3.107-0.097992-3.006-0.483-3.395-0.97101-2.329-0.388-1.067 4.463-3.395-4.754-0.291 4.268-1.553 1.068-1.261-0.582-1.941-0.97-1.067-2.33-1.357-2.327-0.872-2.232-0.39 4.267-2.619-2.715-0.679 2.23-2.036-5.432-3.107-0.97101-0.581-3.202-4.269 0.098999-1.356 0.96899-0.778 2.233-0.484 1.744 0.775 1.358 1.843 1.843 1.26 2.618-0.29 1.358-0.388 3.881-2.717 5.628 0.583 3.492 0.776 2.424 0.485 5.434 1.457-2.425 0.581-0.19601 0.486-0.57999 1.067-2.232 1.162-0.96802 0.778-0.19299 1.164 0.483 2.134 2.716 0.971 2.426-0.391 1.647-1.453 0.776-1.749 0.681-0.969h0.776l-0.19501-1.358 1.067-0.581h1.263l3.394 0.773 1.843 0.875 2.813 2.038 2.329 2.23-2.329 1.843-2.037 1.747-2.813 3.394-2.134 3.688-2.522 4.753-1.455 1.845-1.358 1.357-2.329 1.65-11.352 4.656-2.035 0.776-1.166 0.775-0.67697 0.971v1.842l0.67697 2.135 2.816 8.246-3.883-2.038-0.58099 2.038-0.97101 0.679-0.58099-0.678z"/>
    <path d="m400.51 71.842l1.552-3.202h1.452l1.553-0.77499 1.164-1.263 0.19598-1.744-1.555-0.974-1.551 0.388-0.96902 1.36-0.68198 0.87199-0.58099-3.394-2.134-5.044-0.48602-2.233-0.38699-1.842 1.164 0.583 1.357-0.292 0.77402-0.484 0.29199-1.457-0.58099-0.677-1.358-0.099003-1.262 0.583-0.96902-0.39-0.48398-0.872 0.095978-1.067 0.582-0.872 1.066-0.679 1.457-0.388 1.453 0.388 1.457 0.194 1.744 0.68 1.843 0.193 1.555-0.388 0.77499-1.263-0.388-1.163-1.552-2.814 2.522-0.969 2.715-1.262 3.299-1.551 0.87201 0.679v1.356l0.19598 1.263 0.96802 0.583 2.135-0.291 1.358-1.164 0.58301-1.067 0.19299-0.875-0.58301-2.327 2.329-1.553 2.329-0.776 1.649-0.484 2.036 0.291 1.456 1.164 0.87201 1.067-0.19299 1.358-1.261 1.551-6.693 4.561 3.686-0.487 3.008 0.292 2.715 0.195 1.068 0.484 0.58002 0.776v1.648l-0.77502 1.941-5.141 4.561-1.357 1.455-2.425 3.202-2.816 3.977-2.91 4.269-3.103 6.015-0.97101 2.424-0.77499 3.202-0.38901 3.589 0.48502 3.3 1.649 8.439-0.19199 3.396-0.48602 3.49-0.77798 3.396-2.132 4.269-1.554 2.91-2.812 3.105-2.91 3.395-2.718 2.231-3.491 2.524-3.01 2.036-2.812 1.261-3.201 1.358 5.529-3.587 2.231-2.331 1.358-2.133-1.553-0.971-4.464-0.872 1.167-1.163-2.135-0.388v-1.459l-0.39102-1.456-1.356-0.484-1.845-0.583-1.938-0.193-1.358-0.971-0.97101-0.581-2.038-0.195 4.17-1.65 1.846 0.583 2.424 0.68 2.134-0.68 1.941-1.163 0.58301-1.65-0.194-1.843-0.681-0.87199 4.562-5.143 1.26-2.426 1.066-2.23 1.165-3.782 0.58398-3.493 0.093994-2.23-0.38599-2.813-2.618-7.957v-2.036h0.006012z"/>
    <path d="m351.52 47.88l-3.107 1.843-3.103 2.813-2.619 2.33 2.426 0.094997 0.48502 1.165-0.48502 1.164-4.949 3.395-2.91 2.813-5.529 6.89 4.27-2.329 3.297-1.357 5.046-1.262-5.24 2.619-2.229 1.941-4.561 6.013-4.268 3.105-3.592 0.87201h-1.162l-3.688 0.29099-6.4 1.554-1.359 1.067-0.87399 2.329 0.098999 5.042 2.135 7.47 3.685 9.993 7.372 11.642 5.919 7.276 6.788 11.641 1.941 2.232 3.202 0.96899 7.082-0.58299-2.621 4.27 4.756 2.134-2.135 2.134 3.007 0.39099 2.909 0.96901 3.009 3.883 0.96802 4.17-5.625-2.623-2.717 1.067-3.589 3.299-4.852 3.108-8.343-0.974-2.521 0.19701-1.844 0.776-3.201 2.618-3.685 1.066-1.167 1.261-0.38501 3.492 0.38501 0.97 1.167 1.165 1.162 0.776 15.425-0.67799 2.135-0.39101 9.896-4.075 6.306-3.492 2.426-1.646 1.841-1.649 1.358-1.843 0.487-1.749 0.29001-3.201-0.29001-3.201-6.599-21.146-9.217-19.501-2.23-0.872-1.746-0.292h-0.87201l-3.397 0.292 2.619-2.038 1.554-0.097 2.134 0.388-2.62-4.752-1.939-1.942-3.201-1.842-3.007-1.164-3.201 0.484-2.427 1.262-5.335-3.589-4.656-1.164 0.48602-3.201 1.843-1.939 2.619-0.098999 2.717-0.291 3.103 1.066 5.336 3.396-8.147-11.06h1.844l2.425 1.067 4.654 4.656 4.753 6.403 2.524 3.491 2.327 0.68 7.373 0.096001 2.424 0.875 2.911 2.231 4.754 4.753 3.105 1.457 6.888 0.193 4.56-0.583 3.782-1.26 7.566-3.493 5.819-3.686 2.33-2.329 1.455-2.327 1.552-2.621 0.77399-3.006 0.19702-2.231 0.38699-2.134-0.38699-2.717-0.681-3.977-1.067-4.074-0.96899-2.91-5.726-10.091-2.424-4.073-1.845-4.558-0.776-2.912 0.487-3.784-6.983-2.617-3.883-1.262-2.91-0.583h-2.813l-5.335 0.487-6.887 0.581-2.815 0.487-3.104 1.356-2.327 1.259z"/>
    <path d="m451.14 30.418l0.48401-2.038 0.48599-2.134v-1.552l-0.29199-1.551-0.582-0.679-0.96899-0.776h-1.262l-1.263 0.776-0.87198 0.872-1.358 1.747-2.715 3.396 1.843-4.269-4.56 3.006 2.717-2.714 2.036-2.233 2.037-1.747 1.647-0.775 1.359-0.097 1.262 0.097 1.164 0.775 0.67899 1.166 0.58099 1.843 0.19501 1.648 0.87201 2.038-1.261 1.843-2.228 1.358z"/>
    <path d="m313.29 31l-1.163 1.358-1.261 0.581-1.846 0.292h-2.23l-1.456-0.872-0.483-1.359 0.96899-1.067 1.358-0.387h2.62l1.844 0.679 1.648 0.775z"/>
    <path d="m463.75 29.351h1.455l1.262 0.388 0.38898 0.97-0.77798 0.388h-0.67801l-0.776-0.388-0.87399-1.358z"/>
    <path d="m293.6 33.231l-1.648-0.484-0.388-0.971 0.77499-1.455 1.551-0.095999 1.457 0.289 1.845 0.875-0.39102 1.26-1.261 0.195-1.94 0.387z"/>
    <path d="m445.61 38.567l-2.229 2.327-1.166 0.39-0.483 0.193-0.97202-0.583-0.487-1.745-0.19098-1.554 0.095978-1.359 0.29199-1.647 0.67902-1.942 1.067-1.551 1.744-2.619-0.87 3.491-0.58301 2.038-0.194 1.843 0.48599 1.746v0.68l0.776 0.484 2.035-0.192z"/>
    <path d="m276.91 31l0.096008 1.358-0.77502 1.456-1.843 1.842-2.522 0.776h-1.551l-0.77802-0.679-0.28998-1.163 1.261-1.651 4.946-2.23 1.456 0.291z"/>
    <path d="m286.42 35.657l-0.38699 1.359-1.066 1.26-1.554 1.164-1.455-0.29-1.261-1.457v-1.456l0.19299-0.872 1.261-1.551 1.165-0.875h1.843l1.067 0.875 0.194 1.843z"/>
    <path d="m320.76 38.567l-1.744 1.163-2.813-0.581-1.553-0.973-0.48502-0.581v-1.843l1.358-0.484h2.23l2.135 1.358 0.87201 1.941z"/>
    <path d="m304.66 37.984l-1.749 0.679h-4.073l-0.289-0.486 0.483-1.648 2.135-0.776 2.811 0.875 0.68201 1.356z"/>
    <path d="m250.82 40.41l-1.746 0.875-2.814-1.845 0.97-1.843h2.814l0.776 0.971v1.842z"/>
    <path d="m323.48 40.41l0.19299-1.551 1.358-1.262 2.233-0.968 1.066 0.775v1.747l-1.066 0.776-3.3 0.969-0.48401-0.486z"/>
    <path d="m423.88 40.506l0.871-0.679 0.97101 0.099003 0.58298 0.581-0.29098 0.778-0.87399 0.969-0.87201 0.292-0.97101-0.388-0.096008-0.872 0.67902-0.78z"/>
    <path d="m337.64 47.88l-1.066-0.388-0.97098-1.067 0.19498-1.163 0.871-0.971 0.87201-0.292 2.718 1.067 0.96902 1.746-1.939 0.971-1.649 0.096996z"/>
    <path d="m413.11 45.842h1.066l1.65 1.067 0.58301 2.233-1.26 1.26-0.974 0.583-1.066-0.682-2.036-1.744 0.38898-1.747 1.648-0.97z"/>
    <path d="m258.29 53.408v-1.26l0.77499-1.262 3.493-1.939 1.358-0.292-0.098999 2.715-1.941 1.262-1.841 1.166-0.97098 0.388-0.77402-0.778z"/>
    <path d="m367.42 53.408l-3.3-0.388-3.298-0.484-1.648-0.583 0.58398-1.262 2.035-1.065h1.844l1.842 0.971 1.941 2.811z"/>
    <path d="m420.68 50.209l2.035-0.874 1.649-0.292 1.068 0.292 0.67902 0.679-0.097015 0.872-0.77499 0.679-6.112 1.941-0.582-0.194 0.96802-1.747 1.167-1.356z"/>
    <path d="m348.7 48.947l1.165 0.195 3.493 1.455v0.969l-0.97101 0.97h-2.717l-1.648-0.97-0.29199-1.456 0.97-1.163z"/>
    <path d="m240.63 51.566l-0.87401 3.688-3.783 2.814h-2.813l-0.873-0.875 0.291-1.747 1.456-1.553 1.94-1.162 1.939-1.166h2.717v0.001003z"/>
    <path d="m313 51.758v0.875l-0.48599 0.775-6.403 2.135-1.26-0.29-0.776-0.971 0.388-1.262 1.456-0.872 7.081-0.39z"/>
    <path d="m224.14 56.901l-1.066 1.166-1.941 0.093998-1.261-0.484-0.58301-0.484v-1.939l0.97099-1.845 1.746-0.583 1.843 0.583 0.487 1.845-0.196 1.647z"/>
    <path d="m252.76 53.798l0.87503 1.843-2.813 3.686h-1.746v-1.747l1.746-3.782h1.938z"/>
    <path d="m378.97 53.992l-4.172 2.134-1.94 0.485-1.843-0.776-1.163-0.679-0.48398-0.872 0.095001-0.875 1.165-0.775 3.202 0.775 1.939 0.875 3.201-0.292z"/>
    <path d="m411.85 55.155l0.67899 1.359-0.57999 1.164-1.941 1.262-2.135 0.388h-1.358l-0.87402-0.872v-0.778l0.48602-1.164 1.553-0.487 1.94-0.581 2.23-0.291z"/>
    <path d="m459.58 59.91l-3.784-1.941-0.97202-0.581 0.097992-1.263 1.165-0.292 1.164 0.583 2.329 3.494z"/>
    <path d="m272.26 58.939l-2.135 1.26-1.845 0.875-5.913 0.775-0.974-0.292-0.29199-1.648 2.04-2.232 2.813-1.067 2.91-0.193 2.037 0.677 1.359 1.845z"/>
    <path d="m331.92 57.193l-1.26 3.006-1.552 0.875-1.455-0.097h-1.845l-1.552-0.971v-1.067l0.87399-0.971 1.552-0.388 3.201-0.388h2.037v9.99e-4z"/>
    <path d="m356.17 57.193l-4.074 2.618-0.97098 0.388-1.162-0.193-0.681-0.97 0.38901-0.969 1.454-1.457 1.358-0.583 1.747 0.098999 1.94 1.067z"/>
    <path d="m449.49 56.027v1.554l-0.096008 1.164-0.776 0.778h-1.165l-0.58099-0.778 0.097015-1.455 0.67899-0.872 1.068-0.776h1.745l-0.97101 0.385z"/>
    <path d="m277.79 56.805l1.066 0.583 0.87198 1.26-0.87198 1.262-1.262 0.29-1.552-0.29-0.96799-0.97 0.96799-0.872 0.776-0.875 0.97202-0.388z"/>
    <path d="m440.76 79.895l-6.985 5.335 2.037-3.202 1.747-2.524 0.97-2.231 0.19299-2.329v-1.747l-0.388-2.423-0.77499-2.327-0.97101-2.524-0.58301-2.426v-2.036l0.58301-2.134 0.97101-1.166 1.163-1.452 0.19501 4.073 0.58099 2.619 1.457 3.589 1.356 2.038 1.746 2.814 0.58301 1.746-0.19202 1.939-0.68298 1.746-1.26 1.067-1.745 1.555z"/>
    <path d="m246.26 64.564l-1.067 1.166-4.268 1.067-1.164-0.39-0.97-1.843 0.388-1.841 1.456-1.941 2.813-0.873 1.843 0.873 0.58101 1.746 0.388 2.036z"/>
    <path d="m229.57 63.791l-0.96899 1.26-0.97101 0.388-1.842-0.875v-1.939l1.842-2.715 2.522-1.262-0.58299 3.103v2.04h9.92e-4z"/>
    <path d="m389.73 62.625l-0.29199 1.455h-5.336l-1.164-0.195-2.329-1.455-0.19199-0.192 0.098999-0.874 0.77499-0.581h4.656l3.783 1.842z"/>
    <path d="m318.82 60.782l0.388 0.874-0.388 1.067-6.404 2.715-1.842-0.29201-0.487-0.87399 0.19598-1.549 0.87201-1.067 1.457-0.39 4.945-0.583 1.263 0.099003z"/>
    <path d="m361.8 64.564l-0.97101 1.65-2.23 1.26-1.455-0.093994-0.97101-1.941 0.776-0.97099 2.909-0.872 1.942 0.968z"/>
    <path d="m270.41 66.408l-2.909 1.844-4.946 0.969h-1.458l-0.96802-0.969 0.96802-1.844 2.427-0.48499h2.426l4.46 0.48499z"/>
    <path d="m278.17 65.73v1.26l-2.717 1.457-1.26-0.195-0.97-0.87199 0.48498-0.97201 3.201-0.969 1.261 0.291z"/>
    <path d="m321.63 66.408l1.26 1.066-0.483 1.845-1.165 1.164-3.492 1.26-0.77701-0.193-0.289-0.484-0.289-0.484 0.96902-1.458 1.744-1.164 0.77701-0.581 1.745-0.971z"/>
    <path d="m227.63 72.81l-0.679-1.356 0.679-2.233 1.649-1.163 1.164-0.19299 1.844 0.58299 0.873 0.773-0.873 1.845-2.717 1.939-1.94-0.19501z"/>
    <path d="m377.61 73.877l-2.037-0.773-0.58099-1.455 0.19598-1.262 0.87201-0.778 4.849-1.744 0.58301 0.19299 0.67999 0.194v0.969l-0.87302 2.815-1.843 1.841h-1.846z"/>
    <path d="m305.53 71.743l0.58002-0.96901 1.555-0.77599 3.685-0.778 1.164 0.486 0.776 1.359-0.38699 1.26-1.166 0.778-1.65 0.29001-3.977-0.485-0.58002-1.165z"/>
    <path d="m370.14 70.191l0.483 1.552-0.483 1.262-0.97101 0.87199-1.747 0.29401-0.97101-0.778v-1.067l0.77701-1.65 0.58099-0.388 1.747-0.28999 0.58402 0.193z"/>
    <path d="m387.79 75.915l-0.48498-0.583 0.29199-1.161 0.87399-1.554 2.135-1.551 1.358 0.19199 0.677 1.067-0.48401 1.359-0.776 0.776-2.717 1.262-0.87399 0.193z"/>
    <path d="m407.1 77.273l-1.552 0.97101-1.166-0.778-0.77499-0.87301-0.875-1.843v-2.715l0.875-1.845h2.036l0.87399 0.875 0.58301 2.327 0.19299 2.426-0.19299 1.455z"/>
    <path d="m261.1 71.066l-2.811 6.5-1.844 1.842-2.523 0.292-1.26-0.292-0.97101-1.842v-2.814l1.649-1.554 3.202-1.744 2.715-0.38799h1.843z"/>
    <path d="m242.57 78.533l-1.455 0.67999-1.358 0.194-0.97-0.87499v-1.939l0.97-2.717 1.843-1.841 2.62-0.681 0.774 0.583v1.26l-2.424 5.336z"/>
    <path d="m358.89 77.565l-1.359 0.96801h-1.358l-1.26-1.066 0.19199-1.745 1.457-0.778h2.036l1.26 0.778-0.96799 1.843z"/>
    <path d="m285.35 76.594l-2.813 1.939h-2.815l-3.686-0.96801-1.842-1.843 0.97-0.778 2.135-0.388 3.978 1.067 4.073 0.971z"/>
    <path d="m191.35 75.722l-2.037 3.395-0.96899 3.784 0.48399 2.423 1.456 2.522-2.813 0.679-2.039 0.583-1.551 0.583v-3.688l0.48399-3.201 1.456-3.006 1.745-2.329 1.844-1.745h1.94z"/>
    <path d="m178.25 76.594l5.433-0.775-1.359 1.455-1.261 1.26h-0.97099l-1.842-1.94z"/>
    <path d="m422.33 83.19l-1.844-0.969-0.58102-1.358 0.29202-1.65 0.48398-1.261 1.648-0.387 0.582 1.356v3.3l-0.29199 0.484-0.289 0.485z"/>
    <path d="m165.16 92.406l-0.774 0.776-1.553 0.486-2.328-0.195-1.844-1.939-0.097-1.359 1.068-2.522 4.656-7.275 3.688-2.813-2.717 4.656-0.19499 1.26-0.291 1.067 0.097 1.941 0.485 3.006 0.097 1.65-0.29201 1.261z"/>
    <path d="m174.47 77.565l-1.067 1.455-0.097 1.552 0.38899 1.551 1.357 1.358 3.298 2.33 0.68001 0.968-0.29201 1.553-1.94 1.843-1.359 0.48399-1.068-0.773-1.745-3.009-0.679-2.134-0.194-2.329v-1.747l0.873-2.135 1.844-0.96701z"/>
    <path d="m195.04 77.565h1.747l1.94 0.775 1.747 1.939 2.23 3.883 0.776 2.715-0.291 0.872-0.679 0.097-2.813 0.874 0.97-2.717-0.58299-2.522-0.873-1.939-1.359-2.135-2.812-1.842z"/>
    <path d="m268.38 78.146l0.48498 2.426-2.135 1.262-3.395 0.679-1.358-0.292-0.875-1.843 0.875-1.845 1.941-0.96801h2.812l1.65 0.581z"/>
    <path d="m152.16 97.162l-1.554-5.918-0.776 1.358-0.77499 1.164-1.261 0.679-0.97 0.193-0.97099-0.582-1.163 2.231-1.456 1.455-1.65 0.875-1.649 0.581-1.747 0.388h-2.522v-2.23l-0.48401-2.62-0.77701-2.329-1.648-2.134-2.329-1.164-2.426-0.388 0.87299-1.843 1.844-0.875h2.328l2.037 0.583 2.135 1.551 0.582 1.749 0.38699 1.648v2.813l0.77701 1.067h2.037l2.813-1.067 1.844-0.875v-1.939l-0.96901-3.688-1.844-2.715 2.813-1.941v2.813l1.165 1.65 1.552 0.485 1.94-0.292 1.845-0.969 0.87199-3.688-1.843-1.843 9.313-2.814-2.522 2.913-2.037 3.202-1.455 2.91-0.681 1.746-0.77501 3.103-0.873 4.757z"/>
    <path d="m380.42 79.408l-1.455 3.007-2.909 3.105-1.846 1.26-2.229 0.098999-1.358-0.776-0.388-1.455 0.77499-1.166 1.94-1.26 1.843-1.358 1.842-0.485 3.785-0.971z"/>
    <path d="m40.401 82.222l-2.329 0.874-1.551 0.873-3.88 2.811 1.261-2.424 1.65-1.26 1.94-0.874h2.909z"/>
    <path d="m340.26 84.163l-3.3 1.067-0.96802-0.778-0.38901-1.262 0.97101-0.969 2.327-0.193 1.844 0.386 0.29001 1.067-0.77499 0.682z"/>
    <path d="m388.67 82.222h1.456l1.261 1.26 0.19299 1.65-0.87201 1.26-2.329 1.941-0.67697 0.971-1.263 0.583-1.358-0.195-1.164-1.359 0.097992-1.262 0.97-1.067 1.553-1.455 1.165-1.648 0.96701-0.679z"/>
    <path d="m404.29 81.542l1.262-0.195 0.96899 0.195 0.38901 1.358-0.681 1.455-0.87198 0.38799-1.262-0.38799-0.48398-1.455 0.67899-1.358z"/>
    <path d="m51.46 85.131l-4.559 0.484-1.94 0.776-1.94 1.262-1.067 1.94-1.94 3.3 0.098-2.522 0.581-2.33 1.261-2.038 1.747-1.26 1.843-0.58099h2.232l3.684 0.96899z"/>
    <path d="m281.57 84.163l-4.655 3.684-3.687 1.553h-1.457l-0.38602-0.679 0.29001-1.067 1.553-1.65 5.625-1.84h2.717v-9.99e-4z"/>
    <path d="m351.9 86.878l-2.23 0.388h-1.648l-1.552-0.776-0.58301-0.487v-1.26l1.553-0.487 2.522-0.38699 2.133 1.262 0.48599 0.971-0.681 0.776z"/>
    <path d="m259.26 86.878l-5.625 4.657-2.813 0.87199-2.62-0.87199 0.87401-2.814 1.746-1.843 8.438-1.747 0.87402 0.872-0.87402 0.875z"/>
    <path d="m267.5 87.847l0.38898 2.912-0.38898 1.648-2.716 2.91-0.87201 2.813-2.524 1.263-1.26-0.388v-2.814l2.909-7.47 1.747-0.874h2.716z"/>
    <path d="m62.811 94.25l-2.038 2.038-1.649 3.492-1.067 3.881-3.396-4.269-0.194-2.911 0.874-3.008 2.036-2.619 1.747-0.77599 1.747-0.388 3.687 0.96899 1.843 1.746-3.59 1.845z"/>
    <path d="m122.28 95.316l1.844 0.875h0.96999l1.94-0.875 0.96901 2.813-2.91 1.843-0.97 1.845-2.717 0.776 0.389-2.426-0.485-2.91-0.776-2.91-1.94-2.813-1.844-1.843h2.814l1.165 0.969 1.067 1.262 0.484 1.551v1.843z"/>
    <path d="m378.58 91.339l0.875 1.358-0.48599 1.94-1.359 1.553-2.813 0.971-2.135-0.292-0.48401-0.583-0.19299-1.26 0.97-1.554 2.037-1.551 2.23-0.583h1.358v9.99e-4z"/>
    <path d="m15.858 99.393l-0.97 1.939 2.522 0.486 3.59-0.39-3.589 1.65-2.037 0.48399-2.038-0.28999-1.455-1.358-1.746-2.134-1.067-3.008-0.194-1.939 0.776-2.134 1.551-1.65 2.814-0.872-0.68 2.522v2.038l0.68 1.94 0.873 1.843 0.97 0.873z"/>
    <path d="m110.15 91.535l0.777 1.067 0.581 1.939-0.387 3.298-0.679 3.105-0.486 1.358-1.551 1.359-3.785 0.87199 1.844-1.747 0.874-1.843 0.097-1.939-0.28999-1.747-0.486-1.843-1.067-1.941 1.843-1.939h2.715v0.001007z"/>
    <path d="m351.52 91.535l-1.358 0.87199-1.457 1.067-2.619 0.487-2.23 0.388-0.77499-0.875 0.194-1.067 1.356-0.679 4.656-0.96899 1.166 0.388 1.067 0.388z"/>
    <path d="m392.64 93.57l0.67999 0.971 0.096008 1.067-2.715 2.717-1.262 0.68h-1.649l-0.67798-0.487-0.29202-1.163 0.97-2.039 0.87302-0.968 2.91-0.875 1.067 0.097z"/>
    <path d="m98.123 101.82l-0.097 1.843-0.97 1.163-0.872 1.067h-3.494l-1.067-0.291-1.747-2.426 0.292-1.648 0.97-1.65 2.329-2.715-0.776-0.778-0.679-0.968 0.097-1.359 1.358-0.583 1.746-0.385 1.067 0.385 0.874 0.971v0.872l-0.874 1.845-0.97 1.26 0.194 1.263 0.776 1.26 1.843 0.874z"/>
    <path d="m363.93 93.57l0.48401 1.165-0.19202 1.648-1.552 0.778-2.717 0.58099-1.066-0.58099-0.098999-1.359 1.066-1.165 0.97101-0.677 1.554-0.39h1.551z"/>
    <path d="m76.684 94.348l1.94 0.484h2.426l3.977-0.484-3.783 2.423-2.426 1.747-2.23 2.522-1.262 2.33-1.164 2.327-0.582 1.746h-0.874l-2.618-0.096001 0.19399-4.074 0.873-3.493 1.164-2.425 1.843-1.843 2.522-1.164z"/>
    <path d="m403.7 98.713l-0.97101-0.195-0.87201-0.96899-0.28897-0.583 0.38699-1.939 0.97098-1.358 1.163-0.292 1.552 1.358-0.48401 1.552-0.29199 1.747-1.165 0.679z"/>
    <path d="m299.52 100.56l-0.67902 1.359-1.456-0.097-2.717-0.292-3.395 0.193 2.427-1.747 2.811-0.968 1.457 0.192 1.067 0.388 0.48502 0.972z"/>
    <path d="m371.98 102.79l-1.165 1.554-1.453 0.87199-2.425 0.097-2.427 0.291-2.717-1.939v-0.875l1.067-0.581h1.747l7.373 0.581z"/>
    <path d="m372.95 109.19l-0.19299-1.359 1.067-1.356 1.452-0.875 1.358-1.067 6.503-1.747-0.38901 1.166-1.067 1.648-1.262 0.875-4.656 2.715-2.038 0.486-0.77499-0.486z"/>
    <path d="m336.57 111.03l-0.97101 1.941h-1.746l-3.784 2.814h2.718l2.034 0.679 1.358 1.356 0.39099 2.522-1.843 1.94 1.843 3.591 2.813 2.521 3.688 1.358 5.625 0.77501-6.983 1.748h-1.747l-1.65-0.48799-3.587-5.044-5.627-6.402-2.135-2.715-1.649-4.365-0.87402-4.076v-3.588l2.039 2.814 2.619 1.747 2.327 0.77499 5.141 0.097z"/>
    <path d="m302.13 105.6l-1.164 2.717-0.483 2.23 0.289 2.911 0.58301 3.589 2.134 4.077-2.134-0.972-1.163-1.551-0.97202-2.039-0.58301-2.23v-2.717l0.77902-2.619 0.97-1.747 1.744-1.649z"/>
    <path d="m243.44 105.6h1.262l0.58101 0.875-2.716 2.812-0.97099-0.097 0.097992-0.971 1.746-2.619z"/>
    <path d="m295.25 119.38l-2.133-3.688-0.29199-3.686 0.48398-2.522 1.358-2.038h1.843l-1.261 2.233-0.77399 2.135-0.388 2.23 0.289 2.036 0.87399 3.3z"/>
    <path d="m372.95 114.82l10.77 1.939h2.135l1.551-0.48499 1.552-0.388-0.098999 2.426-1.066 1.552-1.938 0.873-3.105 0.292-1.455 1.26-1.554-0.291-3.977-3.492-2.814-3.686z"/>
    <path d="m360.83 115.79l1.845 2.715h-1.845l-1.938-0.776 0.96799-0.96999 0.97-0.969z"/>
    <path d="m344.62 119.86l-1.647 1.066-1.749 0.292-2.812-0.874 0.87201-1.842 2.038-0.68h1.65l1.357 0.874 0.29098 1.164z"/>
    <path d="m281.57 141.69l-2.717 1.94-4.655-1.066-7.471-5.435 5.53-1.937 4.657 2.811 4.656 3.687z"/>
    <path d="m352.87 141.59l-1.356 0.095001-0.29202-1.067 0.48401-1.843 1.65-0.776 1.358 0.098999 0.67801 1.65-0.48401 0.67799-2.038 1.164z"/>
    <path d="m277.88 148.29l-5.625 0.87-1.845-0.87 2.815-1.847 2.812 0.87399 1.843 0.97301z"/>
    <path d="m324.45 163.13l-3.687 0.968-1.551 1.359-1.167 1.552-0.77399 2.331 0.29102 3.197 0.39099 1.748-3.785-1.748-0.87302-1.937 0.38901-1.942 1.068-1.843 1.649-1.358 2.229-1.359 2.134-0.968h3.686z"/>
    <path d="m341.23 181.76l-3.687 2.812-0.96799 1.843 1.843 0.97299 2.812-0.97299 3.688-3.687 9.313 5.529 8.44 7.47 9.313 13.098 1.844 5.527-1.844 3.785h-0.97101l-0.871-0.96901-2.816-4.658-1.843-4.654-0.96899 1.842-0.87299-0.87299-2.814 3.686h-1.938l-1.747-0.87-2.91-2.815-3.688-7.47-2.813-2.813-1.843-0.87399 2.813-1.941 1.843-1.744h-11.253l2.913-3.785 0.87201-0.968v-1.843h-4.657l-4.56 1.843 0.87399-2.815-0.87399-1.843-4.753-0.96999-3.686 0.96999 2.715-2.812 6.598-3.686 3.686 1.937 0.87201 1.749h1.939v-9.92e-4z"/>
    <path d="m476.17 47.396l2.423 1.747 1.457-0.486 0.776-0.292 0.96899-0.679"/>
    <path d="m461.14 25.178l-1.65-0.193h-1.744l-2.622 0.485 0.388-1.648 0.96802-1.455 1.651-0.68 1.65 0.581 0.87299 0.583 1.067 1.552 0.19199 0.775h-0.77301z"/>
    <path d="m454.15 51.758l-2.618-0.388-2.522-0.773-1.554-1.166-0.87201-1.842"/>
    <path d="m461.14 31.873l0.582-0.775-0.97299-1.358h-1.453l-0.68201 0.97 0.19699 0.68 0.97 0.776 1.359-0.293z"/>
    <path d="m474.62 73.104l2.816-2.038-0.68201 2.522h-0.87201l-0.87201-0.48399h-0.38998z"/>
    <path d="m257.7 62.044l-2.811 2.134-2.621 3.686-1.65 0.583-1.162-0.778 0.19299-1.747 1.358-1.551 1.939-1.067 1.942-1.26h2.812z"/>
    <path d="m346.47 72.229l0.289 0.776-0.289 1.067-5.046 2.814-1.356-0.388-0.39099-0.875 0.098999-1.551 0.776-1.067 1.164-0.388 3.688-0.484 1.066 0.096001z"/>
    <path d="m366.26 85.131l-0.48498-0.77599-1.066-0.387-5.237 2.329-0.582 1.067 0.388 1.064 1.261 0.679 1.357 0.292 1.069-0.775 2.715-2.621 0.57999-0.872z"/>
    <path d="m374.31 63.791v0.87199l-0.388 0.19501-2.911 0.289-1.553-0.096008-0.97-1.939 0.875-0.875 4.753 0.388 0.194 1.166z"/>
    <path d="m241.79 51.371l2.814-0.872h3.394l9.217-5.141 4.269-1.746 3.395-0.776 4.461-0.583-1.453-1.067-0.48602-0.875 0.48602-1.26-0.29001-0.874-1.457-0.386-2.521 0.192-4.075 1.456-4.27 1.941-4.461 2.522-3.202 2.715-3.007 2.813-2.814 1.941z"/>
    <path d="m403.02 103.95l-0.77499 1.648-2.23 1.262-1.554-0.098999-0.96899-1.939 0.87399-0.971 2.911-0.87199 1.743 0.971z"/>
    <path d="m402.35 110.55l0.29199 0.971-0.29199 1.067-6.501 2.618-1.745-0.194-0.58301-0.969 0.19299-1.455 0.875-1.067 1.55-0.486 4.853-0.58099 1.358 0.095993z"/>
    <path d="m248.2 78.827l-7.664 2.229-1.455 1.262-1.357 1.552v3.88l0.97 1.263 0.582 1.26-0.873 1.262-1.94 0.87199-0.29199 1.359 0.29199 0.873 1.552 0.39 1.939-0.39 3.201-1.261 2.135-0.583 0.97-1.26-0.28999-1.262-0.68001-1.94 0.388-1.941 0.582-2.522 1.65-1.841 1.261-1.36v-0.58099l-0.97101-1.261z"/>
    <path d="m225.01 81.347v-2.814l-0.67799-1.26-1.261-1.358h-1.261l-0.97099 0.971-0.97101 2.134v2.327l0.68001 2.233 0.97 0.583h1.261l1.261-0.293-0.96901 2.91 0.677 1.553 1.262 0.971h1.552l1.94-0.679 1.94-1.845 1.553-1.939 0.87201-2.522v-1.939l-0.87201-1.551h-1.261l-1.94 0.19301-3.493 2.327h-0.291v-0.001999z"/>
    <path d="m208.13 75.915l-0.679 2.231 0.679 1.941 0.96899 1.26h1.844l1.552-0.969 2.328-2.232 2.232-3.491 1.553-2.813-0.584-2.233-0.96899-0.677-1.94-0.39-2.62 1.262-2.133 2.038-2.232 4.073z"/>
    <path d="m207.45 66.408l2.521-0.678 3.3-0.87199 1.843-1.361 0.58099-1.551-0.19299-1.939-1.649-1.262h-0.96901l-2.232 0.583-2.232 1.357-2.23 2.523-0.291 1.843 0.677 0.679 0.87401 0.678z"/>
    <path d="m252.85 103.95l3.203-1.65 2.911-0.97 2.813-0.68 2.52 0.68 3.493 0.97 2.233 1.65 0.67801 1.939-0.29199 1.843 1.845 1.941 0.29199 1.939-0.29199 1.455-0.97101 0.388h-1.843l-0.97-0.679-0.681-1.552-0.28998-1.262h-2.23l-3.492 0.292h-2.813l-2.23-0.58099-2.329-0.971-1.164-1.262-0.39102-1.551v-1.939z"/>
    <path d="m260.23 144.21l0.289 0.677 1.262 1.264 1.65 0.28799 1.842-0.28799 0.97101-0.972 0.28998-0.96899-0.28998-2.135-0.97101-1.649-0.97299-1.65-0.86902-0.29199-1.264 0.58299-1.358 1.65-0.57898 3.493z"/>
    <path d="m210.07 87.558l-0.582-1.747 0.87401-2.038 1.842-1.65 2.813-1.648h2.135l0.87201 0.388 0.584 1.067-0.19501 1.649-0.77699 1.843-2.619 2.522-2.231 0.775h-1.455l-1.261-1.161z"/>
   </g>
  </g>
 </switch>
</svg>
