<?xml version="1.0" encoding="UTF-8"?>
<svg width="485.05" height="203.33" enable-background="new 0 0 485.051 203.333" viewBox="0 0 485.051 203.333" xmlns="http://www.w3.org/2000/svg">
 <defs>
  <linearGradient id="ck" x2="0" y1="203.29" y2="6.6613" gradientUnits="userSpaceOnUse">
   <stop offset="0"/>
   <stop offset="1"/>
  </linearGradient>
  <linearGradient id="bz" x2="0" y1="99.774" y2="-.0313" gradientUnits="userSpaceOnUse">
   <stop offset="0"/>
   <stop offset="1"/>
  </linearGradient>
  <linearGradient id="bo" x2="0" y1="138.21" y2="7.8279" gradientUnits="userSpaceOnUse">
   <stop stop-color="#d5ba6e" offset="0"/>
   <stop stop-color="#fcfca1" offset="1"/>
  </linearGradient>
  <linearGradient id="bd" x2="0" y1="9.5717" y2="53.712" gradientUnits="userSpaceOnUse">
   <stop stop-color="#d5ba6e" offset="0"/>
   <stop stop-color="#fcfca1" offset="1"/>
  </linearGradient>
  <linearGradient id="as" x2="0" y1="73.864" y2="32.179" gradientUnits="userSpaceOnUse">
   <stop stop-color="#ffffad" offset="0"/>
   <stop stop-color="#f2f2f2" offset="1"/>
  </linearGradient>
  <linearGradient id="ah" x2="0" y1="78.162" y2="26.26" gradientUnits="userSpaceOnUse">
   <stop stop-color="#d5ba6e" offset="0"/>
   <stop stop-color="#fcfca1" offset="1"/>
  </linearGradient>
  <linearGradient id="w" x2="0" y1="17.241" y2="109.91" gradientUnits="userSpaceOnUse">
   <stop stop-color="#d5ba6e" offset="0"/>
   <stop stop-color="#fcfca1" offset="1"/>
  </linearGradient>
  <linearGradient id="l" x2="0" y1="157" y2="25.677" gradientUnits="userSpaceOnUse">
   <stop stop-color="#d5ba6e" offset="0"/>
   <stop stop-color="#fcfca1" offset="1"/>
  </linearGradient>
  <linearGradient id="a" x2="0" y1="12.384" y2="1.6204" gradientUnits="userSpaceOnUse">
   <stop stop-color="#d5ba6e" offset="0"/>
   <stop stop-color="#fcfca1" offset="1"/>
  </linearGradient>
  <linearGradient id="dd" x2="0" y1="15.202" y2="11.512" gradientUnits="userSpaceOnUse">
   <stop offset="0"/>
   <stop offset="1"/>
  </linearGradient>
  <linearGradient id="ct" x2="0" y1="13.065" y2="11.322" gradientUnits="userSpaceOnUse">
   <stop offset="0"/>
   <stop offset="1"/>
  </linearGradient>
  <linearGradient id="cs" x2="0" y1="15.202" y2="12.193" gradientUnits="userSpaceOnUse">
   <stop offset="0"/>
   <stop offset="1"/>
  </linearGradient>
  <linearGradient id="cr" x2="0" y1="10.45" y2="23.448" gradientUnits="userSpaceOnUse">
   <stop stop-color="#d5ba6e" offset="0"/>
   <stop stop-color="#fcfca1" offset="1"/>
  </linearGradient>
  <linearGradient id="cq" x2="0" y1="18.401" y2="12.678" gradientUnits="userSpaceOnUse">
   <stop offset="0"/>
   <stop offset="1"/>
  </linearGradient>
  <linearGradient id="cp" x2="0" y1="21.41" y2="14.907" gradientUnits="userSpaceOnUse">
   <stop offset="0"/>
   <stop offset="1"/>
  </linearGradient>
  <linearGradient id="co" x2="0" y1="21.698" y2="17.241" gradientUnits="userSpaceOnUse">
   <stop offset="0"/>
   <stop offset="1"/>
  </linearGradient>
  <linearGradient id="cn" x2="0" y1="20.63" y2="17.719" gradientUnits="userSpaceOnUse">
   <stop offset="0"/>
   <stop offset="1"/>
  </linearGradient>
  <linearGradient id="cm" x2="0" y1="23.252" y2="19.561" gradientUnits="userSpaceOnUse">
   <stop offset="0"/>
   <stop offset="1"/>
  </linearGradient>
  <linearGradient id="cl" x2="0" y1="22.865" y2="18.597" gradientUnits="userSpaceOnUse">
   <stop offset="0"/>
   <stop offset="1"/>
  </linearGradient>
  <linearGradient id="cj" x2="0" y1="24.51" y2="21.796" gradientUnits="userSpaceOnUse">
   <stop offset="0"/>
   <stop offset="1"/>
  </linearGradient>
  <linearGradient id="ci" x2="0" y1="29.846" y2="25.965" gradientUnits="userSpaceOnUse">
   <stop offset="0"/>
   <stop offset="1"/>
  </linearGradient>
  <linearGradient id="ch" x2="0" y1="32.953" y2="27.807" gradientUnits="userSpaceOnUse">
   <stop offset="0"/>
   <stop offset="1"/>
  </linearGradient>
  <linearGradient id="cg" x2="0" y1="36.152" y2="30.626" gradientUnits="userSpaceOnUse">
   <stop offset="0"/>
   <stop offset="1"/>
  </linearGradient>
  <linearGradient id="cf" x2="0" y1="35.378" y2="31.596" gradientUnits="userSpaceOnUse">
   <stop offset="0"/>
   <stop offset="1"/>
  </linearGradient>
  <linearGradient id="ce" x2="0" y1="35.476" y2="31.013" gradientUnits="userSpaceOnUse">
   <stop offset="0"/>
   <stop offset="1"/>
  </linearGradient>
  <linearGradient id="cd" x2="0" y1="34.506" y2="30.914" gradientUnits="userSpaceOnUse">
   <stop offset="0"/>
   <stop offset="1"/>
  </linearGradient>
  <linearGradient id="cc" x2="0" y1="40.032" y2="33.536" gradientUnits="userSpaceOnUse">
   <stop offset="0"/>
   <stop offset="1"/>
  </linearGradient>
  <linearGradient id="cb" x2="0" y1="37.509" y2="33.726" gradientUnits="userSpaceOnUse">
   <stop offset="0"/>
   <stop offset="1"/>
  </linearGradient>
  <linearGradient id="ca" x2="0" y1="40.13" y2="34.795" gradientUnits="userSpaceOnUse">
   <stop offset="0"/>
   <stop offset="1"/>
  </linearGradient>
  <linearGradient id="by" x2="0" y1="41.297" y2="35.765" gradientUnits="userSpaceOnUse">
   <stop offset="0"/>
   <stop offset="1"/>
  </linearGradient>
  <linearGradient id="bx" x2="0" y1="38.577" y2="34.598" gradientUnits="userSpaceOnUse">
   <stop offset="0"/>
   <stop offset="1"/>
  </linearGradient>
  <linearGradient id="bw" x2="0" y1="41.297" y2="37.122" gradientUnits="userSpaceOnUse">
   <stop offset="0"/>
   <stop offset="1"/>
  </linearGradient>
  <linearGradient id="bv" x2="0" y1="41.874" y2="37.803" gradientUnits="userSpaceOnUse">
   <stop offset="0"/>
   <stop offset="1"/>
  </linearGradient>
  <linearGradient id="bu" x2="0" y1="43.814" y2="38.387" gradientUnits="userSpaceOnUse">
   <stop offset="0"/>
   <stop offset="1"/>
  </linearGradient>
  <linearGradient id="bt" x2="0" y1="43.041" y2="39.16" gradientUnits="userSpaceOnUse">
   <stop offset="0"/>
   <stop offset="1"/>
  </linearGradient>
  <linearGradient id="bs" x2="0" y1="42.169" y2="37.994" gradientUnits="userSpaceOnUse">
   <stop offset="0"/>
   <stop offset="1"/>
  </linearGradient>
  <linearGradient id="br" x2="0" y1="41.487" y2="37.607" gradientUnits="userSpaceOnUse">
   <stop offset="0"/>
   <stop offset="1"/>
  </linearGradient>
  <linearGradient id="bq" x2="0" y1="42.169" y2="38.774" gradientUnits="userSpaceOnUse">
   <stop offset="0"/>
   <stop offset="1"/>
  </linearGradient>
  <linearGradient id="bp" x2="0" y1="67.171" y2="38.675" gradientUnits="userSpaceOnUse">
   <stop stop-color="#fff" offset="0"/>
   <stop stop-color="#fff" offset="1"/>
  </linearGradient>
  <linearGradient id="bn" x2="0" y1="48.763" y2="41.874" gradientUnits="userSpaceOnUse">
   <stop offset="0"/>
   <stop offset="1"/>
  </linearGradient>
  <linearGradient id="bm" x2="0" y1="47.406" y2="40.616" gradientUnits="userSpaceOnUse">
   <stop offset="0"/>
   <stop offset="1"/>
  </linearGradient>
  <linearGradient id="bl" x2="0" y1="46.049" y2="42.752" gradientUnits="userSpaceOnUse">
   <stop offset="0"/>
   <stop offset="1"/>
  </linearGradient>
  <linearGradient id="bk" x2="0" y1="47.406" y2="42.654" gradientUnits="userSpaceOnUse">
   <stop offset="0"/>
   <stop offset="1"/>
  </linearGradient>
  <linearGradient id="bj" x2="0" y1="49.439" y2="45.564" gradientUnits="userSpaceOnUse">
   <stop offset="0"/>
   <stop offset="1"/>
  </linearGradient>
  <linearGradient id="bi" x2="0" y1="51.189" y2="47.891" gradientUnits="userSpaceOnUse">
   <stop offset="0"/>
   <stop offset="1"/>
  </linearGradient>
  <linearGradient id="bh" x2="0" y1="50.415" y2="47.406" gradientUnits="userSpaceOnUse">
   <stop offset="0"/>
   <stop offset="1"/>
  </linearGradient>
  <linearGradient id="bg" x2="0" y1="53.712" y2="48.376" gradientUnits="userSpaceOnUse">
   <stop offset="0"/>
   <stop offset="1"/>
  </linearGradient>
  <linearGradient id="bf" x2="0" y1="54.952" y2="49.832" gradientUnits="userSpaceOnUse">
   <stop offset="0"/>
   <stop offset="1"/>
  </linearGradient>
  <linearGradient id="be" x2="0" y1="55.873" y2="49.832" gradientUnits="userSpaceOnUse">
   <stop offset="0"/>
   <stop offset="1"/>
  </linearGradient>
  <linearGradient id="bc" x2="0" y1="55.382" y2="51.189" gradientUnits="userSpaceOnUse">
   <stop offset="0"/>
   <stop offset="1"/>
  </linearGradient>
  <linearGradient id="bb" x2="0" y1="56.119" y2="51.962" gradientUnits="userSpaceOnUse">
   <stop offset="0"/>
   <stop offset="1"/>
  </linearGradient>
  <linearGradient id="ba" x2="0" y1="57.9" y2="53.031" gradientUnits="userSpaceOnUse">
   <stop offset="0"/>
   <stop offset="1"/>
  </linearGradient>
  <linearGradient id="az" x2="0" y1="60.233" y2="52.159" gradientUnits="userSpaceOnUse">
   <stop offset="0"/>
   <stop offset="1"/>
  </linearGradient>
  <linearGradient id="ay" x2="0" y1="61.645" y2="53.031" gradientUnits="userSpaceOnUse">
   <stop offset="0"/>
   <stop offset="1"/>
  </linearGradient>
  <linearGradient id="ax" x2="0" y1="61.399" y2="53.319" gradientUnits="userSpaceOnUse">
   <stop offset="0"/>
   <stop offset="1"/>
  </linearGradient>
  <linearGradient id="aw" x2="0" y1="60.478" y2="56.917" gradientUnits="userSpaceOnUse">
   <stop offset="0"/>
   <stop offset="1"/>
  </linearGradient>
  <linearGradient id="av" x2="0" y1="60.478" y2="56.549" gradientUnits="userSpaceOnUse">
   <stop offset="0"/>
   <stop offset="1"/>
  </linearGradient>
  <linearGradient id="au" x2="0" y1="71.653" y2="57.715" gradientUnits="userSpaceOnUse">
   <stop stop-color="#d5ba6e" offset="0"/>
   <stop stop-color="#fcfca1" offset="1"/>
  </linearGradient>
  <linearGradient id="at" x2="0" y1="60.478" y2="57.777" gradientUnits="userSpaceOnUse">
   <stop stop-color="#d5ba6e" offset="0"/>
   <stop stop-color="#fcfca1" offset="1"/>
  </linearGradient>
  <linearGradient id="ar" x2="0" y1="65.145" y2="59.557" gradientUnits="userSpaceOnUse">
   <stop offset="0"/>
   <stop offset="1"/>
  </linearGradient>
  <linearGradient id="aq" x2="0" y1="75.644" y2="59.557" gradientUnits="userSpaceOnUse">
   <stop stop-color="#d5ba6e" offset="0"/>
   <stop stop-color="#fcfca1" offset="1"/>
  </linearGradient>
  <linearGradient id="ap" x2="0" y1="72.636" y2="59.557" gradientUnits="userSpaceOnUse">
   <stop stop-color="#d5ba6e" offset="0"/>
   <stop stop-color="#fcfca1" offset="1"/>
  </linearGradient>
  <linearGradient id="ao" x2="0" y1="70.671" y2="59.557" gradientUnits="userSpaceOnUse">
   <stop stop-color="#d5ba6e" offset="0"/>
   <stop stop-color="#fcfca1" offset="1"/>
  </linearGradient>
  <linearGradient id="an" x2="0" y1="64.469" y2="59.557" gradientUnits="userSpaceOnUse">
   <stop offset="0"/>
   <stop offset="1"/>
  </linearGradient>
  <linearGradient id="am" x2="0" y1="81.539" y2="60.478" gradientUnits="userSpaceOnUse">
   <stop stop-color="#d5ba6e" offset="0"/>
   <stop stop-color="#fcfca1" offset="1"/>
  </linearGradient>
  <linearGradient id="al" x2="0" y1="68.829" y2="61.399" gradientUnits="userSpaceOnUse">
   <stop offset="0"/>
   <stop offset="1"/>
  </linearGradient>
  <linearGradient id="ak" x2="0" y1="68.767" y2="64.162" gradientUnits="userSpaceOnUse">
   <stop stop-color="#d5ba6e" offset="0"/>
   <stop stop-color="#fcfca1" offset="1"/>
  </linearGradient>
  <linearGradient id="aj" x2="0" y1="67.171" y2="63.978" gradientUnits="userSpaceOnUse">
   <stop offset="0"/>
   <stop offset="1"/>
  </linearGradient>
  <linearGradient id="ai" x2="0" y1="71.837" y2="64.162" gradientUnits="userSpaceOnUse">
   <stop offset="0"/>
   <stop offset="1"/>
  </linearGradient>
  <linearGradient id="ag" x2="0" y1="66.68" y2="63.303" gradientUnits="userSpaceOnUse">
   <stop offset="0"/>
   <stop offset="1"/>
  </linearGradient>
  <linearGradient id="af" x2="0" y1="74.846" y2="66.127" gradientUnits="userSpaceOnUse">
   <stop stop-color="#d5ba6e" offset="0"/>
   <stop stop-color="#fcfca1" offset="1"/>
  </linearGradient>
  <linearGradient id="ae" x2="0" y1="71.346" y2="66.127" gradientUnits="userSpaceOnUse">
   <stop offset="0"/>
   <stop offset="1"/>
  </linearGradient>
  <linearGradient id="ad" x2="0" y1="69.259" y2="65.82" gradientUnits="userSpaceOnUse">
   <stop offset="0"/>
   <stop offset="1"/>
  </linearGradient>
  <linearGradient id="ac" x2="0" y1="74.355" y2="67.11" gradientUnits="userSpaceOnUse">
   <stop offset="0"/>
   <stop offset="1"/>
  </linearGradient>
  <linearGradient id="ab" x2="0" y1="81.354" y2="69.811" gradientUnits="userSpaceOnUse">
   <stop offset="0"/>
   <stop offset="1"/>
  </linearGradient>
  <linearGradient id="aa" x2="0" y1="85.652" y2="71.653" gradientUnits="userSpaceOnUse">
   <stop stop-color="#d5ba6e" offset="0"/>
   <stop stop-color="#fcfca1" offset="1"/>
  </linearGradient>
  <linearGradient id="z" x2="0" y1="84.547" y2="71.653" gradientUnits="userSpaceOnUse">
   <stop stop-color="#d5ba6e" offset="0"/>
   <stop stop-color="#fcfca1" offset="1"/>
  </linearGradient>
  <linearGradient id="y" x2="0" y1="79.144" y2="73.311" gradientUnits="userSpaceOnUse">
   <stop offset="0"/>
   <stop offset="1"/>
  </linearGradient>
  <linearGradient id="x" x2="0" y1="85.53" y2="72.144" gradientUnits="userSpaceOnUse">
   <stop stop-color="#d5ba6e" offset="0"/>
   <stop stop-color="#fcfca1" offset="1"/>
  </linearGradient>
  <linearGradient id="v" x2="0" y1="86.512" y2="73.495" gradientUnits="userSpaceOnUse">
   <stop stop-color="#d5ba6e" offset="0"/>
   <stop stop-color="#fcfca1" offset="1"/>
  </linearGradient>
  <linearGradient id="u" x2="0" y1="76.32" y2="72.697" gradientUnits="userSpaceOnUse">
   <stop offset="0"/>
   <stop offset="1"/>
  </linearGradient>
  <linearGradient id="t" x2="0" y1="80.986" y2="75.46" gradientUnits="userSpaceOnUse">
   <stop offset="0"/>
   <stop offset="1"/>
  </linearGradient>
  <linearGradient id="s" x2="0" y1="87.863" y2="75.03" gradientUnits="userSpaceOnUse">
   <stop stop-color="#d5ba6e" offset="0"/>
   <stop stop-color="#fcfca1" offset="1"/>
  </linearGradient>
  <linearGradient id="r" x2="0" y1="79.697" y2="75.521" gradientUnits="userSpaceOnUse">
   <stop offset="0"/>
   <stop offset="1"/>
  </linearGradient>
  <linearGradient id="q" x2="0" y1="89.398" y2="76.32" gradientUnits="userSpaceOnUse">
   <stop stop-color="#d5ba6e" offset="0"/>
   <stop stop-color="#fcfca1" offset="1"/>
  </linearGradient>
  <linearGradient id="p" x2="0" y1="80.679" y2="75.337" gradientUnits="userSpaceOnUse">
   <stop offset="0"/>
   <stop offset="1"/>
  </linearGradient>
  <linearGradient id="o" x2="0" y1="83.872" y2="80.986" gradientUnits="userSpaceOnUse">
   <stop stop-color="#d5ba6e" offset="0"/>
   <stop stop-color="#fcfca1" offset="1"/>
  </linearGradient>
  <linearGradient id="n" x2="0" y1="87.556" y2="84.179" gradientUnits="userSpaceOnUse">
   <stop offset="0"/>
   <stop offset="1"/>
  </linearGradient>
  <linearGradient id="m" x2="0" y1="91.67" y2="84.731" gradientUnits="userSpaceOnUse">
   <stop offset="0"/>
   <stop offset="1"/>
  </linearGradient>
  <linearGradient id="k" x2="0" y1="114.26" y2="87.556" gradientUnits="userSpaceOnUse">
   <stop offset="0"/>
   <stop offset="1"/>
  </linearGradient>
  <linearGradient id="j" x2="0" y1="103.09" y2="87.556" gradientUnits="userSpaceOnUse">
   <stop stop-color="#d5ba6e" offset="0"/>
   <stop stop-color="#fcfca1" offset="1"/>
  </linearGradient>
  <linearGradient id="i" x2="0" y1="91.24" y2="87.556" gradientUnits="userSpaceOnUse">
   <stop stop-color="#d5ba6e" offset="0"/>
   <stop stop-color="#fcfca1" offset="1"/>
  </linearGradient>
  <linearGradient id="h" x2="0" y1="101.37" y2="89.398" gradientUnits="userSpaceOnUse">
   <stop stop-color="#d5ba6e" offset="0"/>
   <stop stop-color="#fcfca1" offset="1"/>
  </linearGradient>
  <linearGradient id="g" x2="0" y1="96.766" y2="104.26" gradientUnits="userSpaceOnUse">
   <stop stop-color="#d5ba6e" offset="0"/>
   <stop stop-color="#fcfca1" offset="1"/>
  </linearGradient>
  <linearGradient id="f" x2="0" y1="100.45" y2="97.748" gradientUnits="userSpaceOnUse">
   <stop stop-color="#d5ba6e" offset="0"/>
   <stop stop-color="#fcfca1" offset="1"/>
  </linearGradient>
  <linearGradient id="e" x2="0" y1="103.21" y2="99.774" gradientUnits="userSpaceOnUse">
   <stop offset="0"/>
   <stop offset="1"/>
  </linearGradient>
  <linearGradient id="d" x2="0" y1="125.56" y2="117.15" gradientUnits="userSpaceOnUse">
   <stop offset="0"/>
   <stop offset="1"/>
  </linearGradient>
  <linearGradient id="c" x2="0" y1="123.66" y2="119.98" gradientUnits="userSpaceOnUse">
   <stop offset="0"/>
   <stop offset="1"/>
  </linearGradient>
  <linearGradient id="b" x2="0" y1="131.15" y2="128.39" gradientUnits="userSpaceOnUse">
   <stop offset="0"/>
   <stop offset="1"/>
  </linearGradient>
  <linearGradient id="dn" x2="0" y1="156.26" y2="145.09" gradientUnits="userSpaceOnUse">
   <stop stop-color="#d5ba6e" offset="0"/>
   <stop stop-color="#fcfca1" offset="1"/>
  </linearGradient>
  <linearGradient id="dm" x2="0" y1="200.1" y2="160.01" gradientUnits="userSpaceOnUse">
   <stop stop-color="#d5ba6e" offset="0"/>
   <stop stop-color="#fcfca1" offset="1"/>
  </linearGradient>
  <linearGradient id="dl" x2="0" y1="7.4411" y2="3.6588" gradientUnits="userSpaceOnUse">
   <stop stop-color="#d5ba6e" offset="0"/>
   <stop stop-color="#fcfca1" offset="1"/>
  </linearGradient>
  <linearGradient id="dk" x2="0" y1="14.134" y2="11.708" gradientUnits="userSpaceOnUse">
   <stop offset="0"/>
   <stop offset="1"/>
  </linearGradient>
  <linearGradient id="dj" x2="0" y1="55.566" y2="53.031" gradientUnits="userSpaceOnUse">
   <stop stop-color="#fff" offset="0"/>
   <stop stop-color="#fff" offset="1"/>
  </linearGradient>
  <linearGradient id="di" x2="0" y1="50.415" y2="44.011" gradientUnits="userSpaceOnUse">
   <stop offset="0"/>
   <stop offset="1"/>
  </linearGradient>
  <linearGradient id="dh" x2="0" y1="58.882" y2="54.093" gradientUnits="userSpaceOnUse">
   <stop offset="0"/>
   <stop offset="1"/>
  </linearGradient>
  <linearGradient id="dg" x2="0" y1="71.346" y2="65.943" gradientUnits="userSpaceOnUse">
   <stop offset="0"/>
   <stop offset="1"/>
  </linearGradient>
  <linearGradient id="df" x2="0" y1="47.112" y2="44.201" gradientUnits="userSpaceOnUse">
   <stop offset="0"/>
   <stop offset="1"/>
  </linearGradient>
  <linearGradient id="de" x2="0" y1="33.34" y2="19.758" gradientUnits="userSpaceOnUse">
   <stop offset="0"/>
   <stop offset="1"/>
  </linearGradient>
  <linearGradient id="dc" x2="0" y1="88.845" y2="84.977" gradientUnits="userSpaceOnUse">
   <stop offset="0"/>
   <stop offset="1"/>
  </linearGradient>
  <linearGradient id="db" x2="0" y1="97.196" y2="92.406" gradientUnits="userSpaceOnUse">
   <stop offset="0"/>
   <stop offset="1"/>
  </linearGradient>
  <linearGradient id="da" x2="0" y1="76.995" y2="60.785" gradientUnits="userSpaceOnUse">
   <stop offset="0"/>
   <stop offset="1"/>
  </linearGradient>
  <linearGradient id="cz" x2="0" y1="71.285" y2="57.9" gradientUnits="userSpaceOnUse">
   <stop offset="0"/>
   <stop offset="1"/>
  </linearGradient>
  <linearGradient id="cy" x2="0" y1="63.303" y2="50.507" gradientUnits="userSpaceOnUse">
   <stop offset="0"/>
   <stop offset="1"/>
  </linearGradient>
  <linearGradient id="cx" x2="0" y1="48.376" y2="40.714" gradientUnits="userSpaceOnUse">
   <stop offset="0"/>
   <stop offset="1"/>
  </linearGradient>
  <linearGradient id="cw" x2="0" y1="95.415" y2="82.644" gradientUnits="userSpaceOnUse">
   <stop offset="0"/>
   <stop offset="1"/>
  </linearGradient>
  <linearGradient id="cv" x2="0" y1="128.39" y2="120.47" gradientUnits="userSpaceOnUse">
   <stop offset="0"/>
   <stop offset="1"/>
  </linearGradient>
  <linearGradient id="cu" x2="0" y1="70.671" y2="62.443" gradientUnits="userSpaceOnUse">
   <stop offset="0"/>
   <stop offset="1"/>
  </linearGradient>
 </defs>
 <g fill-rule="evenodd">
  <path d="m399,99.727-3.978,3.783-3.588,2.717-3.3,2.425-4.169,2.427-2.426.968-3.008.969-3.395.583-3.592.291-6.403.39-6.304.387-6.694.192 4.852,21.15 .582,2.229-.582,2.815-1.068,2.135-2.134,2.909-2.134,1.458-14.164,8.147-1.94.29-2.134.776-2.619.292h-2.813l2.618,2.135 3.201,2.134 5.529,2.718 8.343,4.654 1.552.968 9.313,8.537 1.457,1.848 4.365,7.178 1.939,6.596 .875,1.938v3.493l-.875,2.232-1.65,1.359-1.843.483-3.298-.582-10.476-3.395-6.21-2.328-1.648-1.457-1.845-2.717-2.911-7.47-1.843-.969-3.686-3.686-32.887-13.196-1.355-1.066-.683-1.646-1.26-4.56-5.143-21.15 26.194,2.718h6.305l5.919-1.067 6.014-2.327 1.068-.874 .775-1.844-.486-1.842-1.161-2.427-2.329-3.686-3.689-4.852-2.52,2.524 6.013,6.013 .485,1.359-.289,1.842-.87,1.35-2.426,1.552-4.658,1.744-8.147,2.524-26.388-2.812-23.185-.193 5.819,3.296 5.822,1.941 4.365-.192 3.395-2.04 3.977-2.619 5.143,21.052-7.372,2.717-5.725.776-3.878-.197-4.464-.969-3.978-1.453-5.531-3.592-5.527-3.783-17.754-7.273-1.262-1.067-.387-1.358 .582-2.327 1.164-1.941 2.716-1.941 3.685-.875-1.647-2.618v-2.035l.775-1.941 6.5-13.873 .483-2.619-.29-3.008-.97-2.422-1.551-2.426-2.426-1.941-3.59-1.553-34.438-9.313-3.977-1.747-4.851-2.813-3.3-2.814-4.558-5.528-5.432-1.554-5.045-.581-6.402.097-6.306.874-25.417,6.692-28.813,5.627-13.582,1.651-11.834,1.163-9.896.583-7.858-.583-6.306-.775-4.171-.486-4.462-1.067-3.493-1.26-3.687-1.554-16.297-8.633-3.008-1.067-3.492-.388-3.589.875-8.052,4.948-5.142,2.036-3.007.388-2.523-.388-1.842-1.067-2.276-2.816-.969-2.715-.196-3.298 .971-3.493 1.552-2.426 2.231-2.618 3.687-2.621 8.052-3.686 4.851-1.651 3.298-.677 3.589-.291 4.56,1.163 6.5,3.202 7.47,3.299 3.298,1.453 5.044,1.554 5.142,1.455 6.985,1.067 6.597.776 9.798-.776 14.357-1.844 28.909-5.433 44.722-11.252 5.82-1.066 4.269-.581 4.85-.195 8.925-9.313 6.694-6.791 6.79-6.985 7.568-6.692 2.328-1.747 1.068-.875 1.357-.581 1.649-.583 19.5-5.627 8.44-1.843 5.333-1.358 7.082-1.164 6.79-.971 7.471-.679 9.217-.484h9.604l8.05.971 6.209.97 6.694,1.745 7.372,2.524 17.464,7.759 9.214,2.814 16.59.875 2.618.289 2.619.583 8.054,1.939 2.425.583 2.715.195 2.231-.195 1.843-.583 8.344-3.202 8.345-3.977 6.596-3.201 6.403-2.424 7.274-2.134-2.426,4.269-1.746,3.878-11.543,9.797-3.59,5.531-2.717,7.277-1.745,8.147-.39,12.223 .682,11.254v6.984l-1.358,9.12-1.068,4.173-2.5,4.85z" fill="url(#ck)"/>
  <path d="m444.6,1.165 .68,1.164 .484,1.358 2.329-.679 1.65-.486 1.744.486 1.066.581 .971,1.262 .485,1.843 1.162,1.551 3.689,1.554 2.715,2.134 6.693,5.238 2.327,2.134 1.457,1.939 .873,1.65 .777,1.844 .193,2.814 .484,2.327 6.014,5.627 1.747,2.135 1.26,1.939 .874,1.359 .484,1.356 .292,1.165-.776.969-5.819,7.374-.973.583-1.162.195-4.171-.583-.776.872-.292,1.358 1.456,1.359 .483,1.164v1.456l-.483,1.553-.97,1.162-1.263.778-1.553.388-1.358-.193-1.938-.583-6.209-2.33-4.172-.872-3.007-.388-5.142-.099-2.231.099-2.231.583-2.813.968-2.813,1.067-2.911,1.554-4.56,3.201-4.946,4.17-6.597,7.082-6.792,7.665-12.125,15.81 2.329-8.438 1.358-13.001-1.358-12.61-.681-11.931 2.039-9.412 3.103-10.476 4.172-5.529 7.374-5.336 3.588-5.239 4.171-4.17 3.105-1.843 1.066-2.038 1.164-1.554 2.718-2.619 2.813-2.814 2.328-1.842 2.45-.97 2.23.195 1.75.97z" fill="url(#bz)"/>
  <path d="m342.54,25.515-2.715-1.843-7.665-5.239-4.946-2.91-3.978-1.942-4.947-1.744-5.433-1.457-7.857-1.164-7.762-.872-8.44-.487-14.35.972-16.879,3.201-.872,2.426-1.552,2.327-1.649,1.26-2.426.585-1.843-.195-1.165-.971-.29-1.843 .195-1.455-14.554,3.686-.582,2.327-1.163,1.458-1.94,1.066h-1.941l-.872-1.066-.195-1.263-7.567,3.105 2.135.875 1.456,1.067 .582,1.648v1.941l-.873,1.26-1.94.874-2.135-.195-2.522-1.358-1.066-.68-1.94,3.201-1.357.388-1.457-.388-3.201,2.135-1.261,2.038-7.662,10.768-1.941,4.753v4.172l.971,3.491 2.037,4.948 3.104,3.201 3.202,1.554 4.752.969h1.65l3.104-.969 4.365,2.424 2.912,3.201 4.462,1.262 5.432-.291-2.522,2.91-1.261,2.134 .388,2.134 1.165.776h1.357l2.135-.292 12.707-5.916-.581,4.268-.971,1.94-1.066,1.262 1.066,1.551h2.717l2.91.97 1.843,2.231 .484,3.784 3.687,1.551 2.911,1.164 5.24,5.044 1.358,2.622 .484,1.646-1.649,1.847-3.591.678h-3.688l.974,2.232 4.362,2.52 .582,1.65-.968,1.552-1.263.969-3.201,1.748-5.819,7.372-3.589,4.461-.292,1.65 .68,1.358 .971,1.066 1.938.584 2.913-.099 17.36-2.229 18.726-.583-6.211,1.843 .39.969 2.036.582 12.223-2.134 3.397-.193 3.396.678 7.954,3.201 2.619.969 .874-.969 .484-1.066-1.649-3.005-.97-1.166-1.358-1.165h2.135l4.852,5.435 2.327.873 2.327.095 2.233-1.066 .192-1.553-.192-1.066-3.785-4.753 3.009,1.941 1.356,1.067 .778.969 .289,1.358 1.163-1.358 .292-.875-.484-1.358-1.26-1.354-3.592-3.592-10.572-5.335-2.331-.775-2.037-.875h-2.812l-2.135.484-16.589,3.784-2.715.39-3.007-.192-2.717-.681-2.91-3.395-1.359-1.552-2.618-1.067-2.621-.291-2.715-1.067v-1.551l3.299-.875h2.423l1.942.386 2.425.973-1.165-2.717-1.26-1.843-1.747-1.843-2.33-1.166-2.52-.874 2.231-1.162 1.646-.099 1.358.292 .972.776 2.038-13.873 .292-2.91-.196-3.008-.872-1.648-1.066-2.135-1.941-.583-1.942.099-1.938.484 1.066-3.104 1.456-1.94 2.717-1.066 2.521-.679 2.231.484 3.3-5.627 2.036-4.074 1.551-4.074 .292-2.038 .194-2.619-.582-3.201-.582-1.747-3.008-11.351-3.201-9.701-1.65-1.551-1.453-1.262-3.784-1.648-3.686-1.164-7.955-1.262 3.007-.971 4.559-.875h4.268l7.085.39 13.095,1.843 13.97,2.717 4.073.773 3.881.778 4.464,1.263 6.401,3.006 4.658,2.522 1.744.29 2.524-.873 5.528-2.329 1.456-1.455 2.425-1.939 3.105-1.94-1.458-.291-3.5-1.526z" fill="url(#bo)"/>
  <path d="m458.47,11.059 10.864,7.569 1.455,1.648 .679,1.067 .681,1.067 .579,1.067 .196,1.262 .971,5.529 5.044,4.752 3.006,3.397 1.941,2.811 .581.778-.097.872h-1.262l-2.52-.289-4.076-1.166 1.551,1.455 .875,1.456v1.746l.388.971 .971,1.65-1.554,2.036-1.064,1.067-1.941.195-1.747-.39-1.647-.968-.971-1.456-.583-2.326-.388-1.747 .192-1.456 .195-1.36 1.649-3.006 3.881,1.65-3.685-2.814-1.263-1.165-.971-1.648-1.26-3.104-.682-1.747 .973.485h1.161l-.968-.778-.875-.872-.968-.969-.681-1.455-.29-1.554-.872-.193-.972-1.65-.679-1.166 .679-2.423-.679-.388-1.358.872-.484,1.455 .192,1.166 1.262,1.26-.388.486-.483.68-4.852,1.745-2.327,2.134-1.942,1.65-2.521,1.455-2.038.583-3.784.679 3.008-.099h1.942l1.261-.581 1.745-.487 3.006-2.329 1.167-.581 1.744.291 1.65.971 2.813.581h2.231l2.232,3.589 1.162,2.912-.095,2.135-.682,1.744-.58.873-.196,1.65 .391,1.649 .582,1.843 .58,1.455-7.08-2.23-1.65-.192-1.843.192-14.746,6.692-5.335-3.878-1.358-8.925 3.104-5.627-4.947-3.104 2.813.388 .583-1.941-.973-2.91-.484-.971 .484-3.298 .777-2.134 1.844-2.813h-1.648l3.587-2.91-1.647-.872 3.686-.875 5.433-3.589 1.358-.484 2.037-.195 2.91.388 2.06,1.067z" fill="url(#bd)"/>
  <path d="m440.62,35.021 .484,1.747-.968,2.134-1.067,3.201-.486,2.231 .58,2.134 1.555,2.813 1.745,2.233 .776-1.65 1.455-1.164-.775,2.52 1.454-1.356 1.747-.778 2.037-.386h2.231l2.037.386 2.135-.873 3.201-1.164 1.068-.099-2.911,1.456-1.066.777-.584.873-.194.679v.872l1.164.583 .874.195 2.813,1.163 2.715,1.843 2.91.971 2.037.968 2.232.195 1.261-.289 .68-.682-.193-.968 .97.776v.875l-.193,1.648-.971,1.26-1.263.775-2.036.195-2.231-.195-2.62-.969-3.783-1.842-3.587-.778-3.301-.581-8.053-2.036-1.744-.874-1.552-1.166-3.492-3.395-.486-1.067-.971-1.843-.581-2.038-.289-2.812 .289-2.329 .971-2.038 .581-.581 .096-.776-.385-.973h-1.844l-2.134.778-1.555.872-1.261,1.457-1.552,2.522-.776,1.841v2.038l.388,1.746 .971,3.785 .583,1.842 .289,2.231 .196,2.134-.776,3.493-.874,2.134-.872,2.135-1.554,2.036-2.618,2.621-5.92,5.432 .391-2.619-1.941-2.813-2.618-1.843-1.65-1.942-.968-2.134-.292-2.327 .872-4.755 2.911-6.5 4.171-6.208 3.687-3.978 3.3-2.717 2.618-1.842 2.522-1.26 2.134-.487 2.91-.29 2.813.388 1.358,1.356 .76,1.073z" fill="url(#as)"/>
  <path d="m295.69,77.512v-2.038h-1.064l-.487-1.551 .391-1.551 .58-1.067-.971-1.554h-1.647l.483-2.52 .098-3.107-.098-3.006-.483-3.395-.971-2.329-.388-1.067 4.463-3.395-4.754-.291 4.268-1.553 1.068-1.261-.582-1.941-.97-1.067-2.33-1.357-2.327-.872-2.232-.39 4.26-2.619-2.715-.679 2.23-2.036-5.432-3.107-.971-.581-3.202-4.269 .099-1.356 .969-.778 2.233-.484 1.744.775 1.358,1.843 1.843,1.26 2.618-.29 1.358-.388 3.881-2.717 5.628.583 3.492.776 2.424.485 5.434,1.457-2.425.581-.196.486-.58,1.067-2.232,1.162-.968.778-.193,1.164 .483,2.134 2.716.971 2.426-.391 1.647-1.453 .776-1.749 .681-.969h.776l-.195-1.358 1.067-.581h1.263l3.394.773 1.843.875 2.813,2.038 2.329,2.23-2.329,1.843-2.037,1.747-2.813,3.394-2.134,3.688-2.522,4.753-1.455,1.845-1.358,1.357-2.329,1.65-11.352,4.656-2.035.776-1.166.775-.677.971v1.842l.677,2.135 2.816,8.246-3.883-2.038-.581,2.038-.971.679-.59-.678z" fill="url(#ah)"/>
  <path d="m392.5,53.842 1.552-3.202h1.452l1.553-.775 1.164-1.263 .196-1.744-1.555-.974-1.551.388-.969,1.36-.682.872-.581-3.394-2.134-5.044-.486-2.233-.387-1.842 1.164.583 1.357-.292 .774-.484 .292-1.457-.581-.677-1.358-.099-1.262.583-.969-.39-.484-.872 .096-1.067 .582-.872 1.066-.679 1.457-.388 1.453.388 1.457.194 1.744.68 1.843.193 1.555-.388 .775-1.263-.388-1.163-1.552-2.814 2.522-.969 2.715-1.262 3.299-1.551 .872.679v1.356l.196,1.263 .968.583 2.135-.291 1.358-1.164 .583-1.067 .193-.875-.583-2.327 2.329-1.553 2.329-.776 1.649-.484 2.036.291 1.456,1.164 .872,1.067-.193,1.358-1.261,1.551-6.693,4.561 3.686-.487 3.008.292 2.715.195 1.068.484 .58.776v1.648l-.775,1.941-5.141,4.561-1.357,1.455-2.425,3.202-2.816,3.977-2.91,4.269-3.103,6.015-.971,2.424-.775,3.202-.389,3.589 .485,3.3 1.649,8.439-.192,3.396-.486,3.49-.778,3.396-2.132,4.269-1.554,2.91-2.812,3.105-2.91,3.395-2.718,2.231-3.491,2.524-3.01,2.036-2.812,1.261-3.201,1.358 5.529-3.587 2.231-2.331 1.358-2.133-1.553-.971-4.464-.872 1.167-1.163-2.135-.388v-1.459l-.391-1.456-1.356-.484-1.845-.583-1.938-.193-1.358-.971-.971-.581-2.038-.195 4.17-1.65 1.846.583 2.424.68 2.134-.68 1.941-1.163 .583-1.65-.194-1.843-.681-.872 4.562-5.143 1.26-2.426 1.066-2.23 1.165-3.782 .584-3.493 .094-2.23-.386-2.813-2.618-7.957v-2.036z" fill="url(#w)"/>
  <path d="m343.52,29.88-3.107,1.843-3.103,2.813-2.619,2.33 2.426.095 .485,1.165-.485,1.164-4.949,3.395-2.91,2.813-5.529,6.89 4.27-2.329 3.297-1.357 5.046-1.262-5.24,2.619-2.229,1.941-4.561,6.013-4.268,3.105-3.592.872h-1.162l-3.688.291-6.4,1.554-1.359,1.067-.874,2.329 .099,5.042 2.135,7.47 3.685,9.993 7.372,11.642 5.919,7.276 6.788,11.641 1.941,2.232 3.202.969 7.082-.583-2.621,4.27 4.756,2.134-2.135,2.134 3.007.391 2.909.969 3.009,3.883 .968,4.17-5.625-2.623-2.717,1.067-3.589,3.299-4.852,3.108-8.343-.974-2.521.197-1.844.776-3.201,2.618-3.685,1.066-1.167,1.261-.385,3.492 .385.97 1.167,1.165 1.162.776 15.425-.678 2.135-.391 9.896-4.075 6.306-3.492 2.426-1.646 1.841-1.649 1.358-1.843 .487-1.749 .29-3.201-.29-3.201-6.599-21.146-9.217-19.501-2.23-.872-1.746-.292h-.872l-3.397.292 2.619-2.038 1.554-.097 2.134.388-2.62-4.752-1.939-1.942-3.201-1.842-3.007-1.164-3.201.484-2.427,1.262-5.335-3.589-4.656-1.164 .486-3.201 1.843-1.939 2.619-.099 2.717-.291 3.103,1.066 5.336,3.396-8.147-11.06h1.844l2.425,1.067 4.654,4.656 4.753,6.403 2.524,3.491 2.327.68 7.373.096 2.424.875 2.911,2.231 4.754,4.753 3.105,1.457 6.888.193 4.56-.583 3.782-1.26 7.566-3.493 5.819-3.686 2.33-2.329 1.455-2.327 1.552-2.621 .774-3.006 .197-2.231 .387-2.134-.387-2.717-.681-3.977-1.067-4.074-.969-2.91-5.726-10.091-2.424-4.073-1.845-4.558-.776-2.912 .487-3.784-6.983-2.617-3.883-1.262-2.91-.583h-2.813l-5.335.487-6.887.581-2.815.487-3.104,1.356-2.32,1.24z" fill="url(#l)"/>
  <path d="m443.14,12.418 .484-2.038 .486-2.134v-1.552l-.292-1.551-.582-.679-.969-.776h-1.262l-1.263.776-.872.872-1.358,1.747-2.715,3.396 1.843-4.269-4.56,3.006 2.717-2.714 2.036-2.233 2.037-1.747 1.647-.775 1.359-.097 1.262.097 1.164.775 .679,1.166 .581,1.843 .195,1.648 .872,2.038-1.261,1.843-2.23,1.358z" fill="url(#a)"/>
  <path d="m305.29,13-1.163,1.358-1.261.581-1.846.292h-2.23l-1.456-.872-.48-1.359 .969-1.067 1.358-.387h2.62l1.844.679 1.65.775z" fill="url(#dd)"/>
  <path d="m455.75,11.351h1.455l1.262.388 .389.97-.778.388h-.678l-.776-.388-.86-1.358z" fill="url(#ct)"/>
  <path d="m285.6,15.231-1.648-.484-.388-.971 .775-1.455 1.551-.096 1.457.289 1.845.875-.391,1.26-1.261.195-1.95.387z" fill="url(#cs)"/>
  <path d="m437.61,20.567-2.229,2.327-1.166.39-.483.193-.972-.583-.487-1.745-.191-1.554 .096-1.359 .292-1.647 .679-1.942 1.067-1.551 1.744-2.619-.87,3.491-.583,2.038-.194,1.843 .486,1.746v.68l.776.484 2.02-.192z" fill="url(#cr)"/>
  <path d="m268.91,13 .096,1.358-.775,1.456-1.843,1.842-2.522.776h-1.551l-.778-.679-.29-1.163 1.261-1.651 4.946-2.23 1.44.291z" fill="url(#cq)"/>
  <path d="m278.42,17.657-.387,1.359-1.066,1.26-1.554,1.164-1.455-.29-1.261-1.457v-1.456l.193-.872 1.261-1.551 1.165-.875h1.843l1.067.875 .19,1.843z" fill="url(#cp)"/>
  <path d="m312.76,20.567-1.744,1.163-2.813-.581-1.553-.973-.485-.581v-1.843l1.358-.484h2.23l2.135,1.358 .86,1.941z" fill="url(#co)"/>
  <path d="m296.66,19.984-1.749.679h-4.073l-.289-.486 .483-1.648 2.135-.776 2.811.875 .69,1.356z" fill="url(#cn)"/>
  <path d="m242.82,22.41-1.746.875-2.814-1.845 .97-1.843h2.814l.776.971v1.842z" fill="url(#cm)"/>
  <path d="m315.48,22.41 .193-1.551 1.358-1.262 2.233-.968 1.066.775v1.747l-1.066.776-3.3.969-.48-.486z" fill="url(#cl)"/>
  <path d="m415.88,22.506 .871-.679 .971.099 .583.581-.291.778-.874.969-.872.292-.971-.388-.096-.872 .68-.78z" fill="url(#cj)"/>
  <path d="m329.64,29.88-1.066-.388-.971-1.067 .195-1.163 .871-.971 .872-.292 2.718,1.067 .969,1.746-1.939.971-1.65.097z" fill="url(#ci)"/>
  <path d="m405.11,27.842h1.066l1.65,1.067 .583,2.233-1.26,1.26-.974.583-1.066-.682-2.036-1.744 .389-1.747 1.65-.97z" fill="url(#ch)"/>
  <path d="m250.29,35.408v-1.26l.775-1.262 3.493-1.939 1.358-.292-.099,2.715-1.941,1.262-1.841,1.166-.971.388-.77-.778z" fill="url(#cg)"/>
  <path d="m359.42,35.408-3.3-.388-3.298-.484-1.648-.583 .584-1.262 2.035-1.065h1.844l1.842.971 1.96,2.811z" fill="url(#cf)"/>
  <path d="m412.68,32.209 2.035-.874 1.649-.292 1.068.292 .679.679-.097.872-.775.679-6.112,1.941-.582-.194 .968-1.747 1.16-1.356z" fill="url(#ce)"/>
  <path d="m340.7,30.947 1.165.195 3.493,1.455v.969l-.971.97h-2.717l-1.648-.97-.292-1.456 .98-1.163z" fill="url(#cd)"/>
  <path d="m232.63,33.566-.874,3.688-3.783,2.814h-2.813l-.873-.875 .291-1.747 1.456-1.553 1.94-1.162 1.939-1.166h2.7z" fill="url(#cc)"/>
  <path d="m305,33.758v.875l-.486.775-6.403,2.135-1.26-.29-.776-.971 .388-1.262 1.456-.872 7.08-.39z" fill="url(#cb)"/>
  <path d="m216.14,38.901-1.066,1.166-1.941.094-1.261-.484-.583-.484v-1.939l.971-1.845 1.746-.583 1.843.583 .487,1.845-.2,1.647z" fill="url(#ca)"/>
  <path d="m244.76,35.798 .875,1.843-2.813,3.686h-1.746v-1.747l1.746-3.782h1.93z" fill="url(#by)"/>
  <path d="m370.97,35.992-4.172,2.134-1.94.485-1.843-.776-1.163-.679-.484-.872 .095-.875 1.165-.775 3.202.775 1.939.875 3.19-.292z" fill="url(#bx)"/>
  <path d="m403.85,37.155 .679,1.359-.58,1.164-1.941,1.262-2.135.388h-1.358l-.874-.872v-.778l.486-1.164 1.553-.487 1.94-.581 2.22-.291z" fill="url(#bw)"/>
  <path d="m451.58,41.91-3.784-1.941-.972-.581 .098-1.263 1.165-.292 1.164.583 2.32,3.494z" fill="url(#bv)"/>
  <path d="m264.26,40.939-2.135,1.26-1.845.875-5.913.775-.974-.292-.292-1.648 2.04-2.232 2.813-1.067 2.91-.193 2.037.677 1.35,1.845z" fill="url(#bu)"/>
  <path d="m323.92,39.193-1.26,3.006-1.552.875-1.455-.097h-1.845l-1.552-.971v-1.067l.874-.971 1.552-.388 3.201-.388h2.03z" fill="url(#bt)"/>
  <path d="m348.17,39.193-4.074,2.618-.971.388-1.162-.193-.681-.97 .389-.969 1.454-1.457 1.358-.583 1.747.099 1.93,1.067z" fill="url(#bs)"/>
  <path d="m441.49,38.027v1.554l-.096,1.164-.776.778h-1.165l-.581-.778 .097-1.455 .679-.872 1.068-.776h1.745l-.97.385z" fill="url(#br)"/>
  <path d="m269.78,38.805 1.066.583 .872,1.26-.872,1.262-1.262.29-1.552-.29-.968-.97 .968-.872 .776-.875 .96-.388z" fill="url(#bq)"/>
  <path d="m432.76,61.895-6.985,5.335 2.037-3.202 1.747-2.524 .97-2.231 .193-2.329v-1.747l-.388-2.423-.775-2.327-.971-2.524-.583-2.426v-2.036l.583-2.134 .971-1.166 1.163-1.452 .195,4.073 .581,2.619 1.457,3.589 1.356,2.038 1.746,2.814 .583,1.746-.192,1.939-.683,1.746-1.26,1.067-1.76,1.555z" fill="url(#bp)"/>
  <path d="m238.26,46.564-1.067,1.166-4.268,1.067-1.164-.39-.97-1.843 .388-1.841 1.456-1.941 2.813-.873 1.843.873 .581,1.746 .39,2.036z" fill="url(#bn)"/>
  <path d="m221.57,45.791-.969,1.26-.971.388-1.842-.875v-1.939l1.842-2.715 2.522-1.262-.583,3.103v2.04z" fill="url(#bm)"/>
  <path d="m381.74,44.625-.292,1.455h-5.336l-1.164-.195-2.329-1.455-.192-.192 .099-.874 .775-.581h4.656l3.78,1.842z" fill="url(#bl)"/>
  <path d="m310.82,42.782 .388.874-.388,1.067-6.404,2.715-1.842-.292-.487-.874 .196-1.549 .872-1.067 1.457-.39 4.945-.583 1.26.099z" fill="url(#bk)"/>
  <path d="m353.8,46.564-.971,1.65-2.23,1.26-1.455-.094-.971-1.941 .776-.971 2.909-.872 1.94.968z" fill="url(#bj)"/>
  <path d="m262.41,48.408-2.909,1.844-4.946.969h-1.458l-.968-.969 .968-1.844 2.427-.485h2.426l4.46.485z" fill="url(#bi)"/>
  <path d="m270.17,47.73v1.26l-2.717,1.457-1.26-.195-.97-.872 .485-.972 3.201-.969 1.27.291z" fill="url(#bh)"/>
  <path d="m313.63,48.408 1.26,1.066-.483,1.845-1.165,1.164-3.492,1.26-.777-.193-.289-.484-.289-.484 .969-1.458 1.744-1.164 .777-.581 1.75-.971z" fill="url(#bg)"/>
  <path d="m219.63,54.81-.679-1.356 .679-2.233 1.649-1.163 1.164-.193 1.844.583 .873.773-.873,1.845-2.717,1.939-1.93-.195z" fill="url(#bf)"/>
  <path d="m369.61,55.877-2.037-.773-.581-1.455 .196-1.262 .872-.778 4.849-1.744 .583.193 .68.194v.969l-.873,2.815-1.843,1.841h-1.85z" fill="url(#be)"/>
  <path d="m297.53,53.743 .58-.969 1.555-.776 3.685-.778 1.164.486 .776,1.359-.387,1.26-1.166.778-1.65.29-3.977-.485-.56-1.165z" fill="url(#bc)"/>
  <path d="m362.14,52.191 .483,1.552-.483,1.262-.971.872-1.747.294-.971-.778v-1.067l.777-1.65 .581-.388 1.747-.29 .58.193z" fill="url(#bb)"/>
  <path d="m379.79,57.915-.485-.583 .292-1.161 .874-1.554 2.135-1.551 1.358.192 .677,1.067-.484,1.359-.776.776-2.717,1.262-.87.193z" fill="url(#ba)"/>
  <path d="m399.1,59.273-1.552.971-1.166-.778-.775-.873-.875-1.843v-2.715l.875-1.845h2.036l.874.875 .583,2.327 .193,2.426-.18,1.455z" fill="url(#az)"/>
  <path d="m253.1,53.066-2.811,6.5-1.844,1.842-2.523.292-1.26-.292-.971-1.842v-2.814l1.649-1.554 3.202-1.744 2.715-.388h1.84z" fill="url(#ay)"/>
  <path d="m234.57,60.533-1.455.68-1.358.194-.97-.875v-1.939l.97-2.717 1.843-1.841 2.62-.681 .774.583v1.26l-2.42,5.336z" fill="url(#ax)"/>
  <path d="m350.89,59.565-1.359.968h-1.358l-1.26-1.066 .192-1.745 1.457-.778h2.036l1.26.778-.97,1.843z" fill="url(#aw)"/>
  <path d="m277.35,58.594-2.813,1.939h-2.815l-3.686-.968-1.842-1.843 .97-.778 2.135-.388 3.978,1.067 4.07.971z" fill="url(#av)"/>
  <path d="m183.35,57.722-2.037,3.395-.969,3.784 .484,2.423 1.456,2.522-2.813.679-2.039.583-1.551.583v-3.688l.484-3.201 1.456-3.006 1.745-2.329 1.844-1.745h1.95z" fill="url(#au)"/>
  <path d="m170.25,58.594 5.433-.775-1.359,1.455-1.261,1.26h-.971l-1.84-1.94z" fill="url(#at)"/>
  <path d="m414.33,65.19-1.844-.969-.581-1.358 .292-1.65 .484-1.261 1.648-.387 .582,1.356v3.3l-.292.484-.29.485z" fill="url(#ar)"/>
  <path d="m157.16,74.406-.774.776-1.553.486-2.328-.195-1.844-1.939-.097-1.359 1.068-2.522 4.656-7.275 3.688-2.813-2.717,4.656-.195,1.26-.291,1.067 .097,1.941 .485,3.006 .097,1.65-.32,1.261z" fill="url(#aq)"/>
  <path d="m166.47,59.565-1.067,1.455-.097,1.552 .389,1.551 1.357,1.358 3.298,2.33 .68.968-.292,1.553-1.94,1.843-1.359.484-1.068-.773-1.745-3.009-.679-2.134-.194-2.329v-1.747l.873-2.135 1.85-.967z" fill="url(#ap)"/>
  <path d="m187.04,59.565h1.747l1.94.775 1.747,1.939 2.23,3.883 .776,2.715-.291.872-.679.097-2.813.874 .97-2.717-.583-2.522-.873-1.939-1.359-2.135-2.83-1.842z" fill="url(#ao)"/>
  <path d="m260.38,60.146 .485,2.426-2.135,1.262-3.395.679-1.358-.292-.875-1.843 .875-1.845 1.941-.968h2.812l1.67.581z" fill="url(#an)"/>
  <path d="m144.16,79.162-1.554-5.918-.776,1.358-.775,1.164-1.261.679-.97.193-.971-.582-1.163,2.231-1.456,1.455-1.65.875-1.649.581-1.747.388h-2.522v-2.23l-.484-2.62-.777-2.329-1.648-2.134-2.329-1.164-2.426-.388 .873-1.843 1.844-.875h2.328l2.037.583 2.135,1.551 .582,1.749 .387,1.648v2.813l.777,1.067h2.037l2.813-1.067 1.844-.875v-1.939l-.969-3.688-1.844-2.715 2.813-1.941v2.813l1.165,1.65 1.552.485 1.94-.292 1.845-.969 .872-3.688-1.843-1.843 9.313-2.814-2.522,2.913-2.037,3.202-1.455,2.91-.681,1.746-.775,3.103-.86,4.757z" fill="url(#am)"/>
  <path d="m372.42,61.408-1.455,3.007-2.909,3.105-1.846,1.26-2.229.099-1.358-.776-.388-1.455 .775-1.166 1.94-1.26 1.843-1.358 1.842-.485 3.8-.971z" fill="url(#al)"/>
  <path d="m32.401,64.222-2.329.874-1.551.873-3.88,2.811 1.261-2.424 1.65-1.26 1.94-.874h2.909z" fill="url(#ak)"/>
  <path d="m332.26,66.163-3.3,1.067-.968-.778-.389-1.262 .971-.969 2.327-.193 1.844.386 .29,1.067-.77.682z" fill="url(#aj)"/>
  <path d="m380.67,64.222h1.456l1.261,1.26 .193,1.65-.872,1.26-2.329,1.941-.677.971-1.263.583-1.358-.195-1.164-1.359 .098-1.262 .97-1.067 1.553-1.455 1.165-1.648 .97-.679z" fill="url(#ai)"/>
  <path d="m396.29,63.542 1.262-.195 .969.195 .389,1.358-.681,1.455-.872.388-1.262-.388-.484-1.455 .67-1.358z" fill="url(#ag)"/>
  <path d="m43.46,67.131-4.559.484-1.94.776-1.94,1.262-1.067,1.94-1.94,3.3 .098-2.522 .581-2.33 1.261-2.038 1.747-1.26 1.843-.581h2.232l3.684.969z" fill="url(#af)"/>
  <path d="m273.57,66.163-4.655,3.684-3.687,1.553h-1.457l-.386-.679 .29-1.067 1.553-1.65 5.625-1.84h2.73z" fill="url(#ae)"/>
  <path d="m343.9,68.878-2.23.388h-1.648l-1.552-.776-.583-.487v-1.26l1.553-.487 2.522-.387 2.133,1.262 .486.971-.68.776z" fill="url(#ad)"/>
  <path d="m251.26,68.878-5.625,4.657-2.813.872-2.62-.872 .874-2.814 1.746-1.843 8.438-1.747 .874.872-.88.875z" fill="url(#ac)"/>
  <path d="m259.5,69.847 .389,2.912-.389,1.648-2.716,2.91-.872,2.813-2.524,1.263-1.26-.388v-2.814l2.909-7.47 1.747-.874h2.71z" fill="url(#ab)"/>
  <path d="m54.811,76.25-2.038,2.038-1.649,3.492-1.067,3.881-3.396-4.269-.194-2.911 .874-3.008 2.036-2.619 1.747-.776 1.747-.388 3.687.969 1.843,1.746-3.59,1.845z" fill="url(#aa)"/>
  <path d="m114.28,77.316 1.844.875h.97l1.94-.875 .969,2.813-2.91,1.843-.97,1.845-2.717.776 .389-2.426-.485-2.91-.776-2.91-1.94-2.813-1.844-1.843h2.814l1.165.969 1.067,1.262 .484,1.551v1.843z" fill="url(#z)"/>
  <path d="m370.58,73.339 .875,1.358-.486,1.94-1.359,1.553-2.813.971-2.135-.292-.484-.583-.193-1.26 .97-1.554 2.037-1.551 2.23-.583h1.35z" fill="url(#y)"/>
  <path d="m7.858,81.393-.97,1.939 2.522.486 3.59-.39-3.589,1.65-2.037.484-2.038-.29-1.455-1.358-1.746-2.134-1.067-3.008-.194-1.939 .776-2.134 1.551-1.65 2.814-.872-.68,2.522v2.038l.68,1.94 .873,1.843 .97.873z" fill="url(#x)"/>
  <path d="m102.15,73.535 .777,1.067 .581,1.939-.387,3.298-.679,3.105-.486,1.358-1.551,1.359-3.785.872 1.844-1.747 .874-1.843 .097-1.939-.29-1.747-.486-1.843-1.067-1.941 1.843-1.939h2.72z" fill="url(#v)"/>
  <path d="m343.52,73.535-1.358.872-1.457,1.067-2.619.487-2.23.388-.775-.875 .194-1.067 1.356-.679 4.656-.969 1.166.388 1.06.388z" fill="url(#u)"/>
  <path d="m384.64,75.57 .68.971 .096,1.067-2.715,2.717-1.262.68h-1.649l-.678-.487-.292-1.163 .97-2.039 .873-.968 2.91-.875 1.07.097z" fill="url(#t)"/>
  <path d="m90.123,83.818-.097,1.843-.97,1.163-.872,1.067h-3.494l-1.067-.291-1.747-2.426 .292-1.648 .97-1.65 2.329-2.715-.776-.778-.679-.968 .097-1.359 1.358-.583 1.746-.385 1.067.385 .874.971v.872l-.874,1.845-.97,1.26 .194,1.263 .776,1.26 1.843.874z" fill="url(#s)"/>
  <path d="m355.93,75.57 .484,1.165-.192,1.648-1.552.778-2.717.581-1.066-.581-.099-1.359 1.066-1.165 .971-.677 1.554-.39h1.56z" fill="url(#r)"/>
  <path d="m68.684,76.348 1.94.484h2.426l3.977-.484-3.783,2.423-2.426,1.747-2.23,2.522-1.262,2.33-1.164,2.327-.582,1.746h-.874l-2.618-.096 .194-4.074 .873-3.493 1.164-2.425 1.843-1.843 2.522-1.164z" fill="url(#q)"/>
  <path d="m395.7,80.713-.971-.195-.872-.969-.289-.583 .387-1.939 .971-1.358 1.163-.292 1.552,1.358-.484,1.552-.292,1.747-1.17.679z" fill="url(#p)"/>
  <path d="m291.52,82.556-.679,1.359-1.456-.097-2.717-.292-3.395.193 2.427-1.747 2.811-.968 1.457.192 1.067.388 .49.972z" fill="url(#o)"/>
  <path d="m363.98,84.787-1.165,1.554-1.453.872-2.425.097-2.427.291-2.717-1.939v-.875l1.067-.581h1.747l7.37.581z" fill="url(#n)"/>
  <path d="m364.95,91.189-.193-1.359 1.067-1.356 1.452-.875 1.358-1.067 6.503-1.747-.389,1.166-1.067,1.648-1.262.875-4.656,2.715-2.038.486-.77-.486z" fill="url(#m)"/>
  <path d="m328.57,93.033-.971,1.941h-1.746l-3.784,2.814h2.718l2.034.679 1.358,1.356 .391,2.522-1.843,1.94 1.843,3.591 2.813,2.521 3.688,1.358 5.625.775-6.983,1.748h-1.747l-1.65-.488-3.587-5.044-5.627-6.402-2.135-2.715-1.649-4.365-.874-4.076v-3.584l2.039,2.814 2.619,1.747 2.327.775 5.14.097z" fill="url(#k)"/>
  <path d="m294.13,87.6-1.164,2.717-.483,2.23 .289,2.911 .583,3.589 2.134,4.077-2.134-.972-1.163-1.551-.972-2.039-.583-2.23v-2.717l.779-2.619 .97-1.747 1.73-1.648z" fill="url(#j)"/>
  <path d="m235.44,87.6h1.262l.581.875-2.716,2.812-.971-.097 .098-.971 1.75-2.619z" fill="url(#i)"/>
  <path d="m287.25,101.38-2.133-3.688-.292-3.686 .484-2.522 1.358-2.038h1.843l-1.261,2.233-.774,2.135-.388,2.23 .289,2.036 .87,3.3z" fill="url(#h)"/>
  <path d="m364.95,96.817 10.77,1.939h2.135l1.551-.485 1.552-.388-.099,2.426-1.066,1.552-1.938.873-3.105.292-1.455,1.26-1.554-.291-3.977-3.492-2.8-3.683z" fill="url(#g)"/>
  <path d="m352.82,97.788 1.845,2.715h-1.845l-1.938-.776 .968-.97 .97-.966z" fill="url(#f)"/>
  <path d="m336.62,101.86-1.647,1.066-1.749.292-2.812-.874 .872-1.842 2.038-.68h1.65l1.357.874 .29,1.16z" fill="url(#e)"/>
  <path d="m273.57 123.69-2.717 1.94-4.655-1.066-7.471-5.435 5.53-1.937 4.657 2.811 4.65 3.7z" fill="url(#d)"/>
  <path d="m344.87,123.59-1.356.095-.292-1.067 .484-1.843 1.65-.776 1.358.099 .678,1.65-.484.678-2.04,1.17z" fill="url(#c)"/>
  <path d="m269.88,130.29-5.625.87-1.845-.87 2.815-1.847 2.812.874 1.83.98z" fill="url(#b)"/>
  <path d="m316.45,145.13-3.687.968-1.551,1.359-1.167,1.552-.774,2.331 .291,3.197 .391,1.748-3.785-1.748-.873-1.937 .389-1.942 1.068-1.843 1.649-1.358 2.229-1.359 2.134-.968h3.69z" fill="url(#dn)"/>
  <path d="m333.23,163.76-3.687,2.812-.968,1.843 1.843.973 2.812-.973 3.688-3.687 9.313,5.529 8.44,7.47 9.313,13.098 1.844,5.527-1.844,3.785h-.971l-.871-.969-2.816-4.658-1.843-4.654-.969,1.842-.873-.873-2.814,3.686h-1.938l-1.747-.87-2.91-2.815-3.688-7.47-2.813-2.813-1.843-.874 2.813-1.941 1.843-1.744h-11.253l2.913-3.785 .872-.968v-1.843h-4.657l-4.56,1.843 .874-2.815-.874-1.843-4.753-.97-3.686.97 2.715-2.812 6.598-3.686 3.686,1.937 .872,1.749h1.95z" fill="url(#dm)"/>
  <path d="m468.17,29.396 2.423,1.747 1.457-.486 .776-.292 .969-.679" fill="none"/>
  <path d="m453.14,7.178-1.65-.193h-1.744l-2.63.485 .388-1.648 .968-1.455 1.651-.68 1.65.581 .873.583 1.067,1.552 .192.775h-.77z" fill="url(#dl)"/>
  <path d="m446.15,33.758-2.618-.388-2.522-.773-1.554-1.166-.872-1.842" fill="none"/>
  <path d="m453.14,13.873 .582-.775-.973-1.358h-1.453l-.682.97 .197.68 .97.776 1.35-.293z" fill="url(#dk)"/>
  <path d="m466.62,55.104 2.816-2.038-.682,2.522h-.872l-.872-.484h-.4z" fill="url(#dj)"/>
  <path d="m249.7,44.044-2.811,2.134-2.621,3.686-1.65.583-1.162-.778 .193-1.747 1.358-1.551 1.939-1.067 1.942-1.26h2.81z" fill="url(#di)"/>
  <path d="m338.47,54.229 .289.776-.289,1.067-5.046,2.814-1.356-.388-.391-.875 .099-1.551 .776-1.067 1.164-.388 3.688-.484 1.07.096z" fill="url(#dh)"/>
  <path d="m358.26,67.131-.485-.776-1.066-.387-5.237,2.329-.582,1.067 .388,1.064 1.261.679 1.357.292 1.069-.775 2.715-2.621 .58-.872z" fill="url(#dg)"/>
  <path d="m366.31,45.791v.872l-.388.195-2.911.289-1.553-.096-.97-1.939 .875-.875 4.753.388 .2,1.166z" fill="url(#df)"/>
  <path d="m233.79,33.371 2.814-.872h3.394l9.217-5.141 4.269-1.746 3.395-.776 4.461-.583-1.453-1.067-.486-.875 .486-1.26-.29-.874-1.457-.386-2.521.192-4.075,1.456-4.27,1.941-4.461,2.522-3.202,2.715-3.007,2.813-2.81,1.941z" fill="url(#de)"/>
  <path d="m395.02,85.952-.775,1.648-2.23,1.262-1.554-.099-.969-1.939 .874-.971 2.911-.872 1.75.971z" fill="url(#dc)"/>
  <path d="m394.35,92.548 .292.971-.292,1.067-6.501,2.618-1.745-.194-.583-.969 .193-1.455 .875-1.067 1.55-.486 4.853-.581 1.37.096z" fill="url(#db)"/>
  <path d="m240.2,60.827-7.664,2.229-1.455,1.262-1.357,1.552v3.88l.97,1.263 .582,1.26-.873,1.262-1.94.872-.292,1.359 .292.873 1.552.39 1.939-.39 3.201-1.261 2.135-.583 .97-1.26-.29-1.262-.68-1.94 .388-1.941 .582-2.522 1.65-1.841 1.261-1.36v-.581l-.96-1.261z" fill="url(#da)"/>
  <path d="m217.01,63.347v-2.814l-.678-1.26-1.261-1.358h-1.261l-.971.971-.971,2.134v2.327l.68,2.233 .97.583h1.261l1.261-.293-.969,2.91 .677,1.553 1.262.971h1.552l1.94-.679 1.94-1.845 1.553-1.939 .872-2.522v-1.939l-.872-1.551h-1.261l-1.94.193-3.493,2.327h-.29z" fill="url(#cz)"/>
  <path d="m200.13,57.915-.679,2.231 .679,1.941 .969,1.26h1.844l1.552-.969 2.328-2.232 2.232-3.491 1.553-2.813-.584-2.233-.969-.677-1.94-.39-2.62,1.262-2.133,2.038-2.23,4.073z" fill="url(#cy)"/>
  <path d="m199.45,48.408 2.521-.678 3.3-.872 1.843-1.361 .581-1.551-.193-1.939-1.649-1.262h-.969l-2.232.583-2.232,1.357-2.23,2.523-.291,1.843 .677.679 .87.678z" fill="url(#cx)"/>
  <path d="m244.85,85.952 3.203-1.65 2.911-.97 2.813-.68 2.52.68 3.493.97 2.233,1.65 .678,1.939-.292,1.843 1.845,1.941 .292,1.939-.292,1.455-.971.388h-1.843l-.97-.679-.681-1.552-.29-1.262h-2.23l-3.492.292h-2.813l-2.23-.581-2.329-.971-1.164-1.262-.391-1.551v-1.939z" fill="url(#cw)"/>
  <path d="m252.23,126.21 .289.677 1.262,1.264 1.65.288 1.842-.288 .971-.972 .29-.969-.29-2.135-.971-1.649-.973-1.65-.869-.292-1.264.583-1.358,1.65-.58,3.49z" fill="url(#cv)"/>
  <path d="m202.07,69.558-.582-1.747 .874-2.038 1.842-1.65 2.813-1.648h2.135l.872.388 .584,1.067-.195,1.649-.777,1.843-2.619,2.522-2.231.775h-1.455l-1.25-1.161z" fill="url(#cu)"/>
 </g>
</svg>
